<svg width="629" height="454" viewBox="0 0 629 454" fill="none" xmlns="http://www.w3.org/2000/svg">
<path d="M580.408 143.073C581.403 143.962 581.666 145.393 581.092 146.618C580.567 147.75 580.113 148.729 579.567 149.66C573.924 159.45 570.805 164.579 565.254 174.418C563.846 176.894 560.589 184.37 559.308 186.95C559.282 186.982 559.285 187.011 559.26 187.043C558.088 189.262 554.669 189.466 553.339 187.299C553.339 187.299 553.336 187.27 553.307 187.273C551.328 183.891 549.655 180.36 547.785 176.907C542.64 167.377 536.015 159.34 525.887 154.664C522.216 152.97 522.004 151.476 524.383 148.229C525.28 147.03 526.175 145.801 527.17 144.708C536.791 134.19 542.896 121.787 547.018 108.247C547.282 107.404 547.909 106.698 548.594 105.987C549.492 105.078 550.918 105.049 551.878 105.883C552.676 106.56 553.422 107.299 553.918 108.152C555.025 110.138 555.495 112.451 556.271 114.616C560.451 126.402 567.987 135.367 578.7 141.761C579.289 142.109 579.833 142.578 580.408 143.073ZM550.929 116.825C548.081 122.889 545.799 129.069 542.402 134.606C538.927 140.239 534.362 145.196 530.269 150.483C542.639 156.271 550.522 166.628 555.978 179.77C560.685 166.811 567.931 156.157 576.05 146.056C560.623 136.617 556.714 132.032 550.929 116.825Z" fill="white"/>
<path d="M481.819 253.774C478.432 246.6 475.375 239.247 471.74 232.215C468.185 225.408 463.326 219.521 456.769 215.266C454.364 213.705 454.256 212.084 455.867 209.878C464.941 197.725 471.5 184.344 475.692 169.776C476.144 168.213 477.514 165.653 478.639 165.538C481.623 164.504 483.331 170.363 483.503 170.899C487.513 184.714 497.274 194.063 508.035 202.639C511.528 205.43 511.885 206.355 509.076 209.674C498.488 222.128 492.117 236.774 486.917 252.028C485.331 257.321 482.228 254.636 481.819 253.774ZM459.936 211.473C466.573 214.787 471.239 219.643 474.851 225.308C478.365 230.865 481.135 236.849 484.167 242.544C488.481 229.45 494.854 217.107 505.434 207.132C493.432 199.529 483.64 190.446 479.491 176.412C475.991 189.772 469.443 201.258 459.936 211.473Z" fill="white"/>
<path d="M557.483 214.657C551.985 223.878 549.092 234.056 546.535 244.376C546.369 245.034 545.988 248.717 543.245 248.969C542.466 249.049 541.04 247.941 540.45 247.011C537.834 242.818 535.972 238.024 532.824 234.324C529.108 229.924 524.267 226.484 520.07 222.512C519.457 221.934 519.107 220.512 519.373 219.698C519.889 218.187 520.954 216.912 521.741 215.491C525.734 208.085 529.635 200.631 533.784 193.326C534.648 191.809 536.465 189.903 537.647 189.782C540.587 189.452 541.4 191.7 542.088 193.292C545.228 200.608 549.943 206.509 556.392 211.124C558.699 212.87 557.707 214.284 557.483 214.657ZM525.29 219.966C532.655 224.138 538.05 230.698 541.684 238.284C545.081 230.182 548.549 221.927 552.107 213.4C545.805 209.935 540.931 202.768 538.482 197.363C534.069 204.928 529.703 212.401 525.29 219.966Z" fill="white"/>
</svg>
