<svg width="629" height="454" viewBox="0 0 629 454" fill="none" xmlns="http://www.w3.org/2000/svg">
<g clip-path="url(#clip0_486_1773)">
<path d="M91.8194 351.167C91.4825 351.904 91.1457 352.64 90.8088 353.377C88.8326 358.295 86.8564 363.214 84.8803 368.133C83.6508 371.269 82.0942 374.133 79.9011 376.651C78.9911 377.741 77.872 378.75 76.6257 379.468C72.1409 382.294 66.7492 380.663 64.4056 375.933C63.4156 373.904 63.1167 371.712 63.0179 369.502C62.9547 368.802 62.8914 368.102 62.51 367.229C62.255 367.756 61.9091 368.392 61.6542 368.92C59.7697 372.62 58.0033 376.511 55.9096 380.129C54.8628 381.938 53.6159 383.765 52.0327 385.22C46.3823 390.773 38.3083 388.476 36.3029 380.791C35.2502 376.953 35.507 373.097 35.8729 369.332C36.5589 362.412 38.2814 355.802 40.413 349.256C43.0184 341.255 46.2511 333.5 49.802 325.917C50.0569 325.39 50.3028 324.763 50.5577 324.235C50.5487 324.135 50.5397 324.035 50.4035 323.644C49.8575 324.299 49.4115 324.944 49.0565 325.48C37.7706 342.334 27.6484 359.788 20.708 378.972C19.4147 382.518 17.485 385.718 15.119 388.554C13.936 389.972 12.5348 391.208 10.6793 391.88C6.7772 393.342 2.58592 391.603 0.823908 387.728C0.0700524 386.081 -0.19265 384.29 0.144868 382.444C0.765053 379.261 1.28521 376.088 2.21455 372.978C4.84766 364.168 8.63541 355.858 12.7323 347.621C19.9974 333.148 28.3261 319.285 37.1912 305.776C39.239 302.767 41.1777 299.668 43.2256 296.659C44.1265 295.468 45.1275 294.268 46.2466 293.259C48.7759 291.115 52.0772 290.816 54.7408 292.391C57.6135 294.048 58.7578 296.667 58.3467 299.932C58.0176 302.987 56.6339 305.533 54.0866 307.477C53.2404 308.159 52.4034 308.941 51.7754 309.804C49.9005 312.495 48.2258 315.167 46.46 317.949C46.278 318.167 46.196 318.376 46.2322 318.777C46.6052 318.44 46.8782 318.113 47.2513 317.777C51.6554 312.941 56.0596 308.106 60.3547 303.18C61.1737 302.198 61.8836 301.125 62.5935 300.053C63.3944 298.871 63.9863 297.607 64.8053 296.625C66.9073 294.217 69.9723 293.536 72.6998 294.702C75.3273 295.877 77.1899 298.633 76.8608 301.688C76.7053 303.316 76.1406 304.88 75.4759 306.453C74.9021 307.917 74.1193 309.298 73.6546 310.853C74.0186 310.417 74.3916 310.081 74.7556 309.644C76.4756 307.472 78.0955 305.309 79.9246 303.227C80.9346 302.127 82.1538 301.109 83.4 300.392C88.5942 297.603 94.5487 300.998 94.5817 306.946C94.5534 308.864 94.1249 310.819 93.4782 312.592C91.3923 318.529 89.0064 324.494 86.9205 330.431C85.3903 334.704 83.9692 339.068 82.539 343.332C82.3022 344.06 82.1654 344.778 82.2377 345.578C82.5836 344.942 82.9295 344.306 83.2755 343.669C84.7321 340.815 86.0887 337.969 87.4453 335.123C91.4512 326.996 96.2115 319.405 101.817 312.242C102.991 310.724 104.165 309.206 105.23 307.597C106.113 306.206 106.869 304.525 107.643 303.043C107.898 302.515 108.053 301.997 108.316 301.57C109.791 298.915 112.093 297.598 115.139 297.827C118.085 298.065 120.058 299.803 121.111 302.532C121.901 304.579 121.782 306.606 121.053 308.588C120.169 311.089 119.086 313.607 117.993 316.025C114.706 323.18 111.729 330.408 109.587 337.964C108.667 341.174 108.047 344.356 107.226 347.557C107.072 348.075 107.117 348.575 107.071 349.185C107.362 349.057 107.553 348.939 107.544 348.839C110.229 343.957 113.124 339.157 114.655 333.775C117.279 324.864 120.421 316.109 124.082 307.508C125.174 305.09 126.367 302.662 127.669 300.326C128.461 299.044 129.553 297.735 130.781 296.817C133.137 294.991 135.838 294.747 138.584 296.113C141.339 297.578 142.665 299.98 142.536 303.017C142.453 304.336 142.07 305.681 141.688 307.027C141.478 308.054 141.068 309.1 140.676 310.346C141.377 310.282 141.886 310.337 142.286 310.301C146.497 310.022 149.787 312.952 149.866 317.18C149.884 318.49 149.61 319.926 149.328 321.263C148.68 324.145 148.033 327.028 147.386 329.91C147.258 330.729 147.23 331.538 147.121 332.556C148.73 332.512 150.04 332.494 151.449 332.468C156.678 332.298 161.907 332.128 167.136 331.958C168.746 331.914 170.474 332.06 172.02 332.425C174.075 332.844 176.084 333.873 176.592 336.147C177.109 338.521 175.753 340.257 174.06 341.62C171.613 343.556 168.566 344.436 165.51 345.216C158.898 346.822 152.159 347.028 145.385 346.833C142.757 346.768 140.256 345.884 137.911 344.482C137.665 345.11 137.392 345.437 137.237 345.955C135.416 350.356 133.595 354.756 131.664 359.065C130.335 362.211 128.469 365.002 125.849 367.256C122.573 370.073 118.372 370.452 114.953 368.341C114.417 367.986 113.872 367.531 113.117 366.994C112.562 367.548 112.116 368.194 111.652 368.639C110.26 369.975 108.986 371.502 107.367 372.556C102.227 375.945 96.1169 374.177 93.501 368.665C92.8652 367.21 92.4295 365.736 92.0849 364.154C91.3594 360.588 91.4252 356.851 91.7091 353.295C91.7459 352.586 91.7917 351.977 91.8284 351.267C92.1286 351.24 91.9285 351.258 91.8194 351.167Z" fill="white"/>
</g>
<defs>
<clipPath id="clip0_486_1773">
<rect width="629" height="454" fill="white"/>
</clipPath>
</defs>
</svg>
