<svg width="629" height="454" viewBox="0 0 629 454" fill="none" xmlns="http://www.w3.org/2000/svg">
<path d="M109.329 31.4248C108.362 31.1572 107.575 30.9954 106.811 30.7126C99.0928 27.8822 92.2663 23.4718 85.7991 18.4821C85.043 17.8952 84.3311 17.1674 83.8644 16.3647C83.6115 15.9324 83.6734 15.082 83.9491 14.6021C84.161 14.2423 84.9582 13.9986 85.4021 14.0908C86.2499 14.2541 87.114 14.58 87.8736 15.025C92.8915 17.95 97.8887 20.8947 102.865 23.8794C104.723 25.0011 106.559 26.183 108.396 27.3447C109.016 27.7253 109.614 28.146 110.17 28.5859C110.807 29.0684 111.175 29.7875 110.731 30.4863C110.436 30.9455 110.22 31.4472 109.329 31.4248Z" fill="white"/>
<path d="M140.232 3.4775C140.046 4.44645 139.896 5.57859 139.625 6.66713C138.544 10.9605 137.463 15.2539 136.341 19.5259C136.095 20.4528 135.687 21.3554 135.22 22.1753C134.604 23.2755 133.764 23.6398 132.856 23.4345C131.948 23.2292 131.399 22.4852 131.411 21.2076C131.412 20.3354 131.456 19.4035 131.68 18.5774C133.195 13.159 134.75 7.74168 136.326 2.3451C136.503 1.74103 136.803 1.11973 137.22 0.663661C138.243 -0.487167 139.794 -0.0831598 140.142 1.42656C140.269 2.01798 140.191 2.6854 140.232 3.4775Z" fill="white"/>
<path d="M84.4573 59.0771C83.5066 58.9721 82.5589 58.7456 81.6325 58.4789C80.807 58.2351 80.2334 57.6528 80.1751 56.7385C80.1336 55.9667 80.9248 55.1549 81.9414 55.0587C83.3036 54.9306 84.6856 54.8232 86.0423 54.9181C90.1325 55.2032 94.2409 55.5698 98.3285 55.9563C99.6842 56.0917 101.038 56.3082 102.39 56.5652C102.855 56.658 103.337 56.8323 103.695 57.105C104.711 57.8404 104.598 59.1357 103.47 59.6146C102.835 59.8826 102.061 59.9849 101.372 59.9676C99.0991 60.0121 87.8157 59.425 84.4573 59.0771Z" fill="white"/>
</svg>
