<svg width="629" height="454" viewBox="0 0 629 454" fill="none" xmlns="http://www.w3.org/2000/svg">
<path d="M485.997 424.483C486.581 424.328 487.165 424.172 487.685 424.013C495.434 421.428 503.18 418.906 510.93 416.321C529.618 410.135 548.31 403.885 566.993 397.762C573.961 395.448 580.981 393.328 588.16 391.728C591.265 391.026 594.425 390.455 597.567 390.202C601.157 389.912 604.601 390.954 607.673 392.865C610.129 394.419 610.937 396.829 609.876 399.57C609.036 401.815 607.648 403.643 605.536 404.789C603.428 405.872 601.32 406.954 599.165 407.778C593.615 409.861 588.009 411.812 582.403 413.764C573.672 416.735 564.882 419.639 556.089 422.607C549.899 424.714 543.757 427.079 537.902 429.972C535.402 431.222 533.016 432.67 530.635 434.054C529.706 434.635 528.829 435.41 527.888 436.182C528.437 436.598 528.957 436.439 529.346 436.335C531.673 435.84 534.059 435.413 536.39 434.855C543.716 432.945 550.818 430.511 557.873 427.82C577.139 420.521 596.35 413.091 615.557 405.725C617.32 405.068 619.023 404.343 620.845 403.754C622.016 403.379 623.243 403.136 624.395 403.079C626.44 403.013 628.224 404.08 628.77 405.581C629.419 407.47 628.623 409.016 627.27 410.272C626.186 411.29 624.872 411.911 623.566 412.405C612.978 416.538 602.454 420.674 591.806 424.74C578.154 429.96 564.553 435.375 550.681 440.007C544.622 442.059 538.572 443.983 532.314 445.129C530.054 445.564 527.735 445.932 525.392 445.66C524.252 445.526 523.116 445.329 522.122 444.885C518.825 443.534 517.046 440.299 517.583 436.76C517.819 434.988 518.553 433.439 519.6 431.972C520.718 430.382 522.075 429.062 523.615 427.881C526.166 425.806 529.008 424.194 531.97 422.718C539.54 418.91 547.444 415.888 555.456 413.191C566.66 409.415 577.863 405.639 589.067 401.863C590.238 401.488 591.481 400.991 592.656 400.553C592.918 400.441 593.18 400.33 593.394 399.96C592.815 400.052 592.235 400.144 591.651 400.299C584.472 401.899 577.389 404.015 570.358 406.325C552.52 412.181 534.741 418.104 516.899 424.024C507.978 426.983 499.117 430.011 490.203 432.843C486.69 433.967 483.069 434.764 479.443 435.626C477.76 436.033 476.096 436.122 474.392 435.825C469.343 434.941 467.308 429.649 470.553 425.638C471.172 424.911 471.914 424.255 472.652 423.662C475.811 421.05 479.204 418.771 482.777 416.694C488.73 413.233 494.915 410.169 501.267 407.498C512.398 402.824 523.589 398.218 534.78 393.612C536.877 392.72 538.909 391.825 541.009 390.87C541.402 390.702 541.735 390.468 542.128 390.301C542.069 390.233 542.077 390.106 542.017 390.039C541.437 390.13 540.854 390.286 540.274 390.378C531.539 392.392 523.07 395.252 514.598 398.176C497.848 403.971 481.615 410.691 465.49 417.736C462.604 419.026 459.598 420.18 456.657 421.339C455.74 421.729 454.767 421.988 453.798 422.184C452.698 422.435 451.554 422.365 450.438 421.85C448.825 421.113 447.822 419.775 447.741 417.984C447.724 416.197 448.572 414.846 450.156 413.986C450.422 413.811 450.684 413.7 451.009 413.592C455.686 412.221 460.089 410.132 464.479 408.233C481.72 400.682 499.184 393.655 516.97 387.605C525.312 384.737 533.76 382.195 542.413 380.495C545.772 379.808 549.119 379.312 552.563 379.333C554.028 379.359 555.553 379.453 557.003 379.734C557.949 379.919 558.946 380.3 559.808 380.799C562.634 382.568 563.376 386.058 561.361 388.741C560.663 389.718 559.715 390.617 558.718 391.257C556.393 392.773 554.063 394.352 551.562 395.601C545.58 398.486 539.598 401.372 533.508 403.931C522.698 408.561 511.844 412.869 500.975 417.431C496.39 419.382 491.92 421.531 487.394 423.549C486.934 423.775 486.473 424.002 486.009 424.293C486.005 424.356 486.001 424.42 485.997 424.483Z" fill="white"/>
</svg>
