<svg width="629" height="454" viewBox="0 0 629 454" fill="none" xmlns="http://www.w3.org/2000/svg">
<g clip-path="url(#clip0_486_1296)">
<path d="M91.8194 351.167C91.4825 351.904 91.1457 352.64 90.8088 353.377C88.8326 358.295 86.8564 363.214 84.8803 368.133C83.6508 371.269 82.0942 374.133 79.9011 376.651C78.9911 377.741 77.872 378.75 76.6257 379.468C72.1409 382.294 66.7492 380.663 64.4056 375.933C63.4156 373.904 63.1167 371.712 63.0179 369.502C62.9547 368.802 62.8914 368.102 62.51 367.229C62.255 367.756 61.9091 368.392 61.6542 368.92C59.7697 372.62 58.0033 376.511 55.9096 380.129C54.8628 381.938 53.6159 383.765 52.0327 385.22C46.3823 390.773 38.3083 388.476 36.3029 380.791C35.2502 376.953 35.507 373.097 35.8729 369.332C36.5589 362.412 38.2814 355.802 40.413 349.256C43.0184 341.255 46.2511 333.5 49.802 325.917C50.0569 325.39 50.3028 324.763 50.5577 324.235C50.5487 324.135 50.5397 324.035 50.4035 323.644C49.8575 324.299 49.4115 324.944 49.0565 325.48C37.7706 342.334 27.6484 359.788 20.708 378.972C19.4147 382.518 17.485 385.718 15.119 388.554C13.936 389.972 12.5348 391.208 10.6793 391.88C6.7772 393.342 2.58592 391.603 0.823908 387.728C0.0700524 386.081 -0.19265 384.29 0.144868 382.444C0.765053 379.261 1.28521 376.088 2.21455 372.978C4.84766 364.168 8.63541 355.858 12.7323 347.621C19.9974 333.148 28.3261 319.285 37.1912 305.776C39.239 302.767 41.1777 299.668 43.2256 296.659C44.1265 295.468 45.1275 294.268 46.2466 293.259C48.7759 291.115 52.0772 290.816 54.7408 292.391C57.6135 294.048 58.7578 296.667 58.3467 299.932C58.0176 302.987 56.6339 305.533 54.0866 307.477C53.2404 308.159 52.4034 308.941 51.7754 309.804C49.9005 312.495 48.2258 315.167 46.46 317.949C46.278 318.167 46.196 318.376 46.2322 318.777C46.6052 318.44 46.8782 318.113 47.2513 317.777C51.6554 312.941 56.0596 308.106 60.3547 303.18C61.1737 302.198 61.8836 301.125 62.5935 300.053C63.3944 298.871 63.9863 297.607 64.8053 296.625C66.9073 294.217 69.9723 293.536 72.6998 294.702C75.3273 295.877 77.1899 298.633 76.8608 301.688C76.7053 303.316 76.1406 304.88 75.4759 306.453C74.9021 307.917 74.1193 309.298 73.6546 310.853C74.0186 310.417 74.3916 310.081 74.7556 309.644C76.4756 307.472 78.0955 305.309 79.9246 303.227C80.9346 302.127 82.1538 301.109 83.4 300.392C88.5942 297.603 94.5487 300.998 94.5817 306.946C94.5534 308.864 94.1249 310.819 93.4782 312.592C91.3923 318.529 89.0064 324.494 86.9205 330.431C85.3903 334.704 83.9692 339.068 82.539 343.332C82.3022 344.06 82.1654 344.778 82.2377 345.578C82.5836 344.942 82.9295 344.306 83.2755 343.669C84.7321 340.815 86.0887 337.969 87.4453 335.123C91.4512 326.996 96.2115 319.405 101.817 312.242C102.991 310.724 104.165 309.206 105.23 307.597C106.113 306.206 106.869 304.525 107.643 303.043C107.898 302.515 108.053 301.997 108.316 301.57C109.791 298.915 112.093 297.598 115.139 297.827C118.085 298.065 120.058 299.803 121.111 302.532C121.901 304.579 121.782 306.606 121.053 308.588C120.169 311.089 119.086 313.607 117.993 316.025C114.706 323.18 111.729 330.408 109.587 337.964C108.667 341.174 108.047 344.356 107.226 347.557C107.072 348.075 107.117 348.575 107.071 349.185C107.362 349.057 107.553 348.939 107.544 348.839C110.229 343.957 113.124 339.157 114.655 333.775C117.279 324.864 120.421 316.109 124.082 307.508C125.174 305.09 126.367 302.662 127.669 300.326C128.461 299.044 129.553 297.735 130.781 296.817C133.137 294.991 135.838 294.747 138.584 296.113C141.339 297.578 142.665 299.98 142.536 303.017C142.453 304.336 142.07 305.681 141.688 307.027C141.478 308.054 141.068 309.1 140.676 310.346C141.377 310.282 141.886 310.337 142.286 310.301C146.497 310.022 149.787 312.952 149.866 317.18C149.884 318.49 149.61 319.926 149.328 321.263C148.68 324.145 148.033 327.028 147.386 329.91C147.258 330.729 147.23 331.538 147.121 332.556C148.73 332.512 150.04 332.494 151.449 332.468C156.678 332.298 161.907 332.128 167.136 331.958C168.746 331.914 170.474 332.06 172.02 332.425C174.075 332.844 176.084 333.873 176.592 336.147C177.109 338.521 175.753 340.257 174.06 341.62C171.613 343.556 168.566 344.436 165.51 345.216C158.898 346.822 152.159 347.028 145.385 346.833C142.757 346.768 140.256 345.884 137.911 344.482C137.665 345.11 137.392 345.437 137.237 345.955C135.416 350.356 133.595 354.756 131.664 359.065C130.335 362.211 128.469 365.002 125.849 367.256C122.573 370.073 118.372 370.452 114.953 368.341C114.417 367.986 113.872 367.531 113.117 366.994C112.562 367.548 112.116 368.194 111.652 368.639C110.26 369.975 108.986 371.502 107.367 372.556C102.227 375.945 96.1169 374.177 93.501 368.665C92.8652 367.21 92.4295 365.736 92.0849 364.154C91.3594 360.588 91.4252 356.851 91.7091 353.295C91.7459 352.586 91.7917 351.977 91.8284 351.267C92.1286 351.24 91.9285 351.258 91.8194 351.167Z" fill="white"/>
<path d="M580.408 143.073C581.403 143.962 581.666 145.393 581.092 146.618C580.567 147.75 580.113 148.729 579.567 149.66C573.924 159.45 570.805 164.579 565.254 174.418C563.846 176.894 560.589 184.37 559.308 186.95C559.283 186.982 559.286 187.011 559.26 187.043C558.088 189.262 554.669 189.466 553.339 187.299C553.339 187.299 553.336 187.27 553.307 187.273C551.328 183.891 549.655 180.36 547.785 176.907C542.64 167.377 536.016 159.34 525.887 154.664C522.216 152.97 522.004 151.476 524.383 148.229C525.28 147.03 526.175 145.801 527.17 144.708C536.791 134.19 542.896 121.787 547.018 108.247C547.282 107.404 547.909 106.698 548.594 105.987C549.492 105.078 550.918 105.049 551.878 105.883C552.676 106.56 553.422 107.299 553.918 108.152C555.025 110.138 555.495 112.451 556.271 114.616C560.452 126.402 567.987 135.367 578.7 141.761C579.289 142.109 579.833 142.578 580.408 143.073ZM550.929 116.825C548.081 122.889 545.799 129.069 542.402 134.606C538.927 140.239 534.362 145.196 530.269 150.483C542.639 156.271 550.522 166.628 555.978 179.77C560.685 166.811 567.931 156.157 576.05 146.056C560.623 136.617 556.714 132.032 550.929 116.825Z" fill="white"/>
<path d="M481.819 253.774C478.432 246.6 475.375 239.247 471.74 232.215C468.186 225.408 463.326 219.521 456.769 215.266C454.364 213.705 454.256 212.084 455.867 209.878C464.941 197.725 471.5 184.344 475.692 169.776C476.144 168.213 477.514 165.653 478.639 165.538C481.623 164.504 483.331 170.363 483.503 170.899C487.513 184.714 497.274 194.063 508.035 202.639C511.528 205.43 511.885 206.355 509.076 209.674C498.488 222.128 492.117 236.774 486.917 252.028C485.331 257.321 482.228 254.636 481.819 253.774ZM459.937 211.473C466.573 214.787 471.239 219.643 474.851 225.308C478.365 230.865 481.135 236.849 484.167 242.544C488.481 229.45 494.854 217.107 505.435 207.132C493.432 199.529 483.64 190.446 479.491 176.412C475.991 189.772 469.443 201.258 459.937 211.473Z" fill="white"/>
<path d="M557.483 214.657C551.985 223.878 549.092 234.056 546.535 244.376C546.369 245.034 545.988 248.717 543.245 248.969C542.466 249.049 541.041 247.941 540.45 247.011C537.834 242.818 535.973 238.024 532.824 234.324C529.108 229.924 524.267 226.484 520.07 222.512C519.457 221.934 519.107 220.512 519.374 219.698C519.889 218.187 520.954 216.912 521.741 215.491C525.734 208.085 529.635 200.631 533.784 193.326C534.649 191.809 536.465 189.903 537.648 189.782C540.587 189.452 541.401 191.7 542.088 193.292C545.228 200.608 549.943 206.509 556.392 211.124C558.699 212.87 557.707 214.284 557.483 214.657ZM525.29 219.966C532.655 224.138 538.05 230.698 541.684 238.284C545.081 230.182 548.549 221.927 552.107 213.4C545.805 209.935 540.931 202.768 538.483 197.363C534.069 204.928 529.704 212.401 525.29 219.966Z" fill="white"/>
<path d="M109.328 31.4248C108.362 31.1572 107.575 30.9954 106.811 30.7126C99.0928 27.8822 92.2663 23.4718 85.7991 18.4821C85.043 17.8952 84.331 17.1674 83.8643 16.3647C83.6115 15.9324 83.6734 15.082 83.9491 14.6021C84.161 14.2423 84.9581 13.9986 85.4021 14.0908C86.2499 14.2541 87.1139 14.58 87.8736 15.025C92.8915 17.95 97.8887 20.8947 102.865 23.8794C104.723 25.0011 106.559 26.183 108.396 27.3447C109.016 27.7253 109.614 28.146 110.17 28.5859C110.807 29.0684 111.175 29.7875 110.731 30.4863C110.436 30.9455 110.22 31.4472 109.328 31.4248Z" fill="white"/>
<path d="M140.232 3.4775C140.046 4.44645 139.896 5.57859 139.625 6.66713C138.544 10.9605 137.463 15.2539 136.341 19.5259C136.095 20.4528 135.687 21.3554 135.22 22.1753C134.604 23.2755 133.764 23.6398 132.856 23.4345C131.948 23.2292 131.399 22.4852 131.411 21.2076C131.412 20.3354 131.456 19.4035 131.679 18.5774C133.195 13.159 134.75 7.74168 136.326 2.3451C136.503 1.74103 136.803 1.11973 137.22 0.663661C138.243 -0.487167 139.794 -0.0831598 140.142 1.42656C140.269 2.01798 140.191 2.6854 140.232 3.4775Z" fill="white"/>
<path d="M84.4573 59.0771C83.5065 58.9721 82.5589 58.7456 81.6325 58.4789C80.807 58.2351 80.2333 57.6528 80.1751 56.7385C80.1336 55.9667 80.9248 55.1549 81.9414 55.0587C83.3036 54.9306 84.6856 54.8232 86.0422 54.9181C90.1324 55.2032 94.2409 55.5698 98.3285 55.9563C99.6841 56.0917 101.038 56.3082 102.39 56.5652C102.855 56.658 103.337 56.8323 103.695 57.105C104.711 57.8404 104.598 59.1357 103.47 59.6146C102.835 59.8826 102.061 59.9849 101.372 59.9676C99.0991 60.0121 87.8157 59.425 84.4573 59.0771Z" fill="white"/>
<path d="M485.997 424.483C486.581 424.328 487.165 424.172 487.685 424.013C495.434 421.428 503.18 418.906 510.93 416.321C529.618 410.135 548.31 403.885 566.993 397.762C573.961 395.448 580.981 393.328 588.16 391.728C591.265 391.026 594.425 390.455 597.567 390.202C601.157 389.912 604.601 390.954 607.673 392.865C610.129 394.419 610.937 396.829 609.876 399.57C609.036 401.815 607.648 403.643 605.536 404.789C603.428 405.872 601.32 406.954 599.165 407.778C593.615 409.861 588.009 411.812 582.403 413.764C573.672 416.735 564.882 419.639 556.089 422.607C549.899 424.714 543.757 427.079 537.902 429.972C535.402 431.222 533.016 432.67 530.635 434.054C529.706 434.635 528.829 435.41 527.888 436.182C528.437 436.598 528.957 436.439 529.346 436.335C531.673 435.84 534.059 435.413 536.39 434.855C543.716 432.945 550.818 430.511 557.873 427.82C577.139 420.521 596.35 413.091 615.557 405.725C617.32 405.068 619.023 404.343 620.845 403.754C622.016 403.379 623.243 403.136 624.395 403.079C626.44 403.013 628.224 404.08 628.77 405.581C629.419 407.47 628.623 409.016 627.27 410.272C626.186 411.29 624.872 411.911 623.566 412.405C612.978 416.538 602.454 420.674 591.806 424.74C578.154 429.96 564.553 435.375 550.681 440.007C544.622 442.059 538.572 443.983 532.314 445.129C530.054 445.564 527.735 445.932 525.392 445.66C524.252 445.526 523.116 445.329 522.122 444.885C518.825 443.534 517.046 440.299 517.583 436.76C517.819 434.988 518.553 433.439 519.6 431.972C520.718 430.382 522.075 429.062 523.615 427.881C526.166 425.806 529.008 424.194 531.97 422.718C539.54 418.91 547.444 415.888 555.456 413.191C566.66 409.415 577.863 405.639 589.067 401.863C590.238 401.488 591.481 400.991 592.656 400.553C592.918 400.441 593.18 400.33 593.394 399.96C592.815 400.052 592.235 400.144 591.651 400.299C584.472 401.899 577.389 404.015 570.358 406.325C552.52 412.181 534.741 418.104 516.899 424.024C507.978 426.983 499.117 430.011 490.203 432.843C486.69 433.967 483.069 434.764 479.443 435.626C477.76 436.033 476.096 436.122 474.392 435.825C469.343 434.941 467.308 429.649 470.553 425.638C471.172 424.911 471.914 424.255 472.652 423.662C475.811 421.05 479.204 418.771 482.777 416.694C488.73 413.233 494.915 410.169 501.267 407.498C512.398 402.824 523.589 398.218 534.78 393.612C536.877 392.72 538.909 391.825 541.009 390.87C541.402 390.702 541.735 390.468 542.128 390.301C542.069 390.233 542.077 390.106 542.017 390.039C541.437 390.13 540.854 390.286 540.274 390.378C531.539 392.392 523.07 395.252 514.598 398.176C497.848 403.971 481.615 410.691 465.49 417.736C462.604 419.026 459.598 420.18 456.657 421.339C455.74 421.729 454.767 421.988 453.798 422.184C452.698 422.435 451.554 422.365 450.438 421.85C448.825 421.113 447.822 419.775 447.741 417.984C447.724 416.197 448.572 414.846 450.156 413.986C450.422 413.811 450.684 413.7 451.009 413.592C455.686 412.221 460.089 410.132 464.479 408.233C481.72 400.682 499.184 393.655 516.97 387.605C525.312 384.737 533.76 382.195 542.413 380.495C545.772 379.808 549.119 379.312 552.563 379.333C554.028 379.359 555.553 379.453 557.003 379.734C557.949 379.919 558.946 380.3 559.808 380.799C562.634 382.568 563.376 386.058 561.361 388.741C560.663 389.718 559.715 390.617 558.718 391.257C556.393 392.773 554.063 394.352 551.562 395.601C545.58 398.486 539.598 401.372 533.508 403.931C522.698 408.561 511.844 412.869 500.975 417.431C496.39 419.382 491.92 421.531 487.394 423.549C486.934 423.775 486.473 424.002 486.009 424.293C486.005 424.356 486.001 424.42 485.997 424.483Z" fill="white"/>
</g>
<defs>
<clipPath id="clip0_486_1296">
<rect width="629" height="454" fill="white"/>
</clipPath>
</defs>
</svg>
