<svg width="144" height="32" viewBox="0 0 144 32" fill="none" xmlns="http://www.w3.org/2000/svg">
<path fill-rule="evenodd" clip-rule="evenodd" d="M6.19958 7.32899C6.35608 8.01406 6.57277 8.72476 6.84808 9.44709C6.14494 9.51756 5.47834 9.62714 4.85849 9.77474C3.71701 10.0465 2.65795 10.4653 1.81693 11.0722C0.96832 11.6846 0.254822 12.5588 0.0543076 13.7165C-0.146207 14.8743 0.230566 15.9442 0.822269 16.8152C1.40869 17.6783 2.2632 18.4406 3.24453 19.0934C3.42785 19.2154 3.61788 19.3351 3.81424 19.4522C5.73098 20.6051 8.25984 21.5201 11.0466 22.0203C14.1895 22.5845 17.1795 22.2825 19.4518 21.6141C19.5761 21.5775 19.6989 21.5397 19.82 21.5006C19.4862 22.9342 19.2592 24.3014 19.1524 25.5129C19.0481 26.6961 19.0501 27.8186 19.2241 28.739C19.3557 29.4352 19.6843 30.5296 20.6292 31.0817C20.7553 31.1592 20.8927 31.2268 21.0425 31.2823C22.1816 31.7044 23.2271 31.163 23.8765 30.6769C24.5825 30.1484 25.2629 29.3681 25.8929 28.4768C27.166 26.6756 28.4512 24.1088 29.4907 21.2012C30.5302 18.2937 31.1662 15.4863 31.3282 13.2734C31.4083 12.1783 31.3798 11.1354 31.1726 10.2685C31.0053 9.56845 30.6311 8.636 29.7714 8.13315C29.6398 8.0524 29.4964 7.98184 29.3403 7.92399C28.3204 7.54604 27.3449 7.8919 26.6411 8.33362C25.9226 8.78464 25.245 9.47522 24.6241 10.2814C24.1887 10.8468 23.754 11.5049 23.3282 12.2453C22.6322 10.4389 21.5308 8.40568 19.9035 6.43133C18.1513 4.3053 16.1913 2.58273 14.3165 1.4638C14.0467 1.30156 13.7786 1.15177 13.5132 1.01503C12.4671 0.476247 11.3915 0.103958 10.364 0.0184984C9.32731 -0.0677311 8.22877 0.135052 7.34421 0.890712L7.37485 0.927891C6.50311 1.67986 6.10143 2.76608 5.96102 3.82348C5.81818 4.89906 5.91978 6.10421 6.19958 7.32899ZM12.1546 3.86266C12.3462 3.96138 12.542 4.07024 12.7412 4.18898C14.2359 5.08873 15.9176 6.54133 17.4807 8.43779C18.469 9.63693 19.2243 10.8531 19.7867 11.9929C17.9508 10.9936 15.6426 10.2026 13.1237 9.75045C12.1338 9.57276 11.157 9.45555 10.2107 9.39693C9.75131 8.42515 9.42251 7.47827 9.22476 6.61267C9.00342 5.64377 8.96036 4.83888 9.03894 4.24713C9.11925 3.64241 9.30178 3.40953 9.38421 3.33911C9.46277 3.272 9.66457 3.15542 10.1547 3.19618C10.654 3.23772 11.3316 3.43878 12.1546 3.86266ZM11.5424 18.8802C9.05737 18.4341 6.915 17.6363 5.38971 16.7271C5.25018 16.6431 5.11592 16.5582 4.98714 16.4725C4.21509 15.9589 3.70526 15.462 3.42025 15.0425C3.14053 14.6307 3.1388 14.3945 3.1566 14.2917C3.17441 14.1889 3.25539 13.9675 3.65656 13.678C4.06531 13.3831 4.71133 13.0937 5.60938 12.8798C6.40381 12.6907 7.33615 12.5747 8.36682 12.5472C8.87762 13.3946 9.46506 14.2307 10.1267 15.0334C11.6945 16.9357 13.5494 18.2684 15.3896 19.0942C14.1874 19.1724 12.8822 19.1207 11.5424 18.8802ZM12.6279 12.8906C15.113 13.3367 17.2555 14.1345 18.7808 15.0437C18.9202 15.1277 19.0544 15.2126 19.1831 15.2983C19.9552 15.8119 20.465 16.3088 20.75 16.7283C20.788 16.7841 20.8208 16.8367 20.8491 16.8862C20.7166 16.9158 20.5664 16.9403 20.3972 16.9566C19.7584 17.0185 18.9512 16.9533 18.0472 16.707C16.2423 16.2153 14.1843 15.0373 12.5059 13.0009C12.464 12.9499 12.4223 12.8989 12.3811 12.8477C12.4631 12.8615 12.5454 12.8758 12.6279 12.8906ZM27.1119 12.2585C27.5221 11.7259 27.8749 11.3764 28.1476 11.1681C28.2201 11.5864 28.2467 12.2004 28.1873 13.0124C28.0519 14.8621 27.4991 17.3787 26.5285 20.0937C25.5579 22.8086 24.3925 25.0982 23.3283 26.6037C22.9266 27.1721 22.5686 27.5866 22.2729 27.8652C22.2165 27.3656 22.2138 26.6792 22.2894 25.8217C22.4637 23.8446 23.025 21.2687 23.9189 18.6819C23.9656 18.5806 24.0072 18.4739 24.0418 18.3621C24.1201 18.192 24.1746 18.0214 24.2132 17.8625C25.1407 15.3774 26.179 13.47 27.1119 12.2585Z" fill="#34495E"/>
<path d="M36.0436 25.9332C35.8553 25.9332 35.6985 25.8703 35.573 25.7446C35.4475 25.6189 35.3848 25.4617 35.3848 25.2731V4.80943C35.3848 4.43222 35.5103 4.11788 35.7612 3.8664C36.0331 3.59397 36.3573 3.45776 36.7337 3.45776H42.3175C43.635 3.45776 44.8479 3.78258 45.9563 4.43222C47.0856 5.08186 47.9744 5.96202 48.6227 7.07269C49.2919 8.18337 49.6266 9.38834 49.6266 10.6876C49.6266 12.0079 49.2919 13.2233 48.6227 14.334C47.9744 15.4447 47.0856 16.3248 45.9563 16.9745C44.8479 17.6241 43.635 17.9489 42.3175 17.9489H39.2119V25.2731C39.2119 25.4617 39.1491 25.6189 39.0237 25.7446C38.8982 25.8703 38.7413 25.9332 38.5531 25.9332H36.0436ZM42.1606 14.334C43.1644 14.334 44.0219 13.9777 44.7329 13.2652C45.444 12.5527 45.7995 11.6935 45.7995 10.6876C45.7995 9.70269 45.444 8.85396 44.7329 8.14145C44.0219 7.42895 43.1644 7.07269 42.1606 7.07269H39.2119V14.334H42.1606Z" fill="#34495E"/>
<path d="M55.6017 26.3418C53.845 26.3418 52.4125 25.8494 51.3041 24.8644C50.2166 23.8585 49.6729 22.5593 49.6729 20.9666C49.6729 19.5206 50.1748 18.3261 51.1786 17.3831C52.1824 16.4191 53.5941 15.7904 55.4135 15.4971C55.8736 15.4551 56.3128 15.3923 56.731 15.3084C58.1949 15.1408 59.0837 15.0151 59.3974 14.9312C60.1712 14.8055 60.5581 14.3654 60.5581 13.611C60.5581 12.8356 60.2339 12.2174 59.5856 11.7564C58.9582 11.2744 58.1636 11.0334 57.2016 11.0334C55.5076 11.0334 54.2737 11.6516 53.5 12.888C53.3327 13.1604 53.134 13.2967 52.9039 13.2967C52.7366 13.2967 52.6007 13.2547 52.4961 13.1709L50.7394 11.9764C50.5512 11.8507 50.4571 11.6726 50.4571 11.442C50.4571 11.3792 50.478 11.2849 50.5199 11.1591C51.1263 10.0065 52.0256 9.11591 53.2176 8.48723C54.4097 7.83759 55.7586 7.51277 57.2643 7.51277C58.6446 7.51277 59.8575 7.77472 60.9032 8.29862C61.9488 8.82253 62.754 9.56647 63.3186 10.5305C63.9042 11.4944 64.197 12.6051 64.197 13.8625V25.2731C64.197 25.4617 64.1342 25.6189 64.0087 25.7446C63.8833 25.8703 63.7264 25.9332 63.5382 25.9332H61.4051C61.2169 25.9332 61.06 25.8808 60.9345 25.776C60.809 25.6503 60.7463 25.4826 60.7463 25.2731V24.0471C59.3033 25.5769 57.5884 26.3418 55.6017 26.3418ZM55.884 22.9784C56.6996 22.9784 57.4734 22.7688 58.2054 22.3497C58.9373 21.9306 59.5229 21.3857 59.9621 20.7151C60.4222 20.0236 60.6522 19.3006 60.6522 18.5462V17.9175L58.2995 18.2633C57.0238 18.41 56.1977 18.5252 55.8213 18.609C54.1064 18.9234 53.249 19.6673 53.249 20.8409C53.249 21.4905 53.4895 22.0144 53.9705 22.4126C54.4515 22.7898 55.0893 22.9784 55.884 22.9784Z" fill="#34495E"/>
<path d="M67.3714 32C67.1832 32 67.0263 31.9371 66.9009 31.8114C66.7754 31.6857 66.7126 31.5285 66.7126 31.3399V8.58153C66.7126 8.39293 66.7754 8.23576 66.9009 8.11002C67.0263 7.98428 67.1832 7.92141 67.3714 7.92141H69.4104C69.5986 7.92141 69.7555 7.98428 69.881 8.11002C70.0064 8.23576 70.0692 8.39293 70.0692 8.58153V9.99607C70.6129 9.17878 71.2821 8.56058 72.0768 8.14145C72.8924 7.72233 73.7603 7.51277 74.6805 7.51277C75.9144 7.51277 77.0646 7.84807 78.1311 8.51866C79.2186 9.1683 80.0761 10.0485 80.7034 11.1591C81.3517 12.2698 81.6759 13.4643 81.6759 14.7426V19.112C81.6759 20.3903 81.3622 21.5848 80.7348 22.6955C80.1074 23.8062 79.2604 24.6968 78.1939 25.3674C77.1273 26.017 75.9562 26.3418 74.6805 26.3418C73.9067 26.3418 73.1539 26.1847 72.4219 25.8703C71.7109 25.535 71.0625 25.0635 70.477 24.4558V31.3399C70.477 31.5285 70.4143 31.6857 70.2888 31.8114C70.1633 31.9371 70.0064 32 69.8182 32H67.3714ZM74.21 22.7269C75.2347 22.7269 76.1026 22.3707 76.8136 21.6582C77.5456 20.9247 77.9116 20.0445 77.9116 19.0177V14.8369C77.9116 13.8101 77.5456 12.9404 76.8136 12.2279C76.1026 11.4944 75.2347 11.1277 74.21 11.1277C73.1852 11.1277 72.3069 11.4944 71.5749 12.2279C70.843 12.9404 70.477 13.8101 70.477 14.8369V19.0177C70.477 20.0445 70.843 20.9247 71.5749 21.6582C72.3069 22.3707 73.1852 22.7269 74.21 22.7269Z" fill="#34495E"/>
<path d="M86.3027 5.81532C86.1144 5.81532 85.9576 5.75245 85.8321 5.62672C85.7066 5.50098 85.6439 5.34381 85.6439 5.15521V1.72888C85.6439 1.54027 85.7066 1.3831 85.8321 1.25737C85.9576 1.13163 86.1144 1.06876 86.3027 1.06876H88.4358C88.624 1.06876 88.7808 1.13163 88.9063 1.25737C89.0318 1.3831 89.0945 1.54027 89.0945 1.72888V5.15521C89.0945 5.34381 89.0318 5.50098 88.9063 5.62672C88.7808 5.75245 88.624 5.81532 88.4358 5.81532H86.3027ZM87.0555 25.9332C86.6163 25.9332 86.2399 25.7865 85.9262 25.4931C85.6334 25.1788 85.487 24.8016 85.487 24.3615V11.5049H82.9461C82.7579 11.5049 82.601 11.442 82.4756 11.3163C82.3501 11.1906 82.2874 11.0334 82.2874 10.8448V8.58153C82.2874 8.39293 82.3501 8.23576 82.4756 8.11002C82.601 7.98428 82.7579 7.92141 82.9461 7.92141H87.6829C88.1221 7.92141 88.4881 8.07859 88.7808 8.39293C89.0945 8.68631 89.2514 9.05304 89.2514 9.49312V22.3497H91.7923C91.9805 22.3497 92.1374 22.4126 92.2629 22.5383C92.3883 22.664 92.4511 22.8212 92.4511 23.0098V25.2731C92.4511 25.4617 92.3883 25.6189 92.2629 25.7446C92.1374 25.8703 91.9805 25.9332 91.7923 25.9332H87.0555Z" fill="#34495E"/>
<path d="M96.2693 25.9332C95.8929 25.9332 95.5688 25.8075 95.2969 25.556C95.0459 25.2836 94.9204 24.9587 94.9204 24.5815V5.50098H92.0658C91.8776 5.50098 91.7208 5.43811 91.5953 5.31238C91.4698 5.18664 91.4071 5.02947 91.4071 4.84086V2.51473C91.4071 2.32613 91.4698 2.16896 91.5953 2.04322C91.7208 1.91748 91.8776 1.85462 92.0658 1.85462H97.3359C97.7123 1.85462 98.026 1.99083 98.277 2.26326C98.5488 2.51473 98.6848 2.82908 98.6848 3.20629V22.2868H101.539C101.728 22.2868 101.884 22.3497 102.01 22.4754C102.135 22.6012 102.198 22.7583 102.198 22.947V25.2731C102.198 25.4617 102.135 25.6189 102.01 25.7446C101.884 25.8703 101.728 25.9332 101.539 25.9332H96.2693Z" fill="#34495E"/>
<path d="M105.99 25.9332C105.614 25.9332 105.29 25.8075 105.018 25.556C104.767 25.2836 104.641 24.9587 104.641 24.5815V5.50098H101.787C101.598 5.50098 101.442 5.43811 101.316 5.31238C101.191 5.18664 101.128 5.02947 101.128 4.84086V2.51473C101.128 2.32613 101.191 2.16896 101.316 2.04322C101.442 1.91748 101.598 1.85462 101.787 1.85462H107.057C107.433 1.85462 107.747 1.99083 107.998 2.26326C108.27 2.51473 108.406 2.82908 108.406 3.20629V22.2868H111.26C111.448 22.2868 111.605 22.3497 111.731 22.4754C111.856 22.6012 111.919 22.7583 111.919 22.947V25.2731C111.919 25.4617 111.856 25.6189 111.731 25.7446C111.605 25.8703 111.448 25.9332 111.26 25.9332H105.99Z" fill="#34495E"/>
<path d="M119.664 26.3418C118.304 26.3418 117.05 26.017 115.899 25.3674C114.77 24.6968 113.871 23.7957 113.202 22.664C112.532 21.5324 112.198 20.3065 112.198 18.9862V14.8684C112.198 13.5481 112.532 12.3222 113.202 11.1906C113.871 10.0589 114.77 9.1683 115.899 8.51866C117.05 7.84807 118.304 7.51277 119.664 7.51277C121.023 7.51277 122.267 7.84807 123.397 8.51866C124.547 9.1683 125.457 10.0589 126.126 11.1906C126.795 12.3222 127.13 13.5481 127.13 14.8684V18.9862C127.13 20.3065 126.795 21.5324 126.126 22.664C125.457 23.7957 124.547 24.6968 123.397 25.3674C122.267 26.017 121.023 26.3418 119.664 26.3418ZM119.664 22.6955C120.688 22.6955 121.556 22.3392 122.267 21.6267C122.999 20.8933 123.365 20.0131 123.365 18.9862V14.8684C123.365 13.8415 122.999 12.9718 122.267 12.2593C121.556 11.5259 120.688 11.1591 119.664 11.1591C118.639 11.1591 117.761 11.5259 117.029 12.2593C116.318 12.9718 115.962 13.8415 115.962 14.8684V18.9862C115.962 20.0131 116.318 20.8933 117.029 21.6267C117.761 22.3392 118.639 22.6955 119.664 22.6955Z" fill="#34495E"/>
<path d="M129.884 25.9332C129.695 25.9332 129.539 25.8703 129.413 25.7446C129.288 25.6189 129.225 25.4617 129.225 25.2731V8.58153C129.225 8.39293 129.288 8.23576 129.413 8.11002C129.539 7.98428 129.695 7.92141 129.884 7.92141H132.331C132.519 7.92141 132.676 7.98428 132.801 8.11002C132.927 8.23576 132.989 8.39293 132.989 8.58153V10.0589C133.575 9.26261 134.265 8.6444 135.06 8.20432C135.875 7.74329 136.764 7.51277 137.726 7.51277C138.918 7.51277 139.985 7.79568 140.926 8.36149C141.888 8.92731 142.641 9.71316 143.184 10.7191C143.728 11.725 144 12.8566 144 14.1139V25.2731C144 25.4617 143.937 25.6189 143.812 25.7446C143.686 25.8703 143.529 25.9332 143.341 25.9332H140.894C140.706 25.9332 140.549 25.8703 140.424 25.7446C140.298 25.6189 140.236 25.4617 140.236 25.2731V14.5855C140.236 13.4748 139.953 12.6261 139.389 12.0393C138.824 11.4316 138.029 11.1277 137.005 11.1277C135.771 11.1277 134.788 11.5363 134.056 12.3536C133.345 13.15 132.989 14.2502 132.989 15.6542V25.2731C132.989 25.4617 132.927 25.6189 132.801 25.7446C132.676 25.8703 132.519 25.9332 132.331 25.9332H129.884Z" fill="#34495E"/>
</svg>
