<svg width="28" height="28" viewBox="0 0 28 28" fill="none" xmlns="http://www.w3.org/2000/svg">
<path fill-rule="evenodd" clip-rule="evenodd" d="M5.53366 6.5283C5.67336 7.13852 5.86677 7.77158 6.11251 8.41499C5.48489 8.47776 4.88989 8.57538 4.33662 8.70685C3.31775 8.94895 2.37245 9.32194 1.62176 9.86255C0.86431 10.408 0.227451 11.1867 0.0484742 12.218C-0.130502 13.2493 0.2058 14.2023 0.733946 14.9781C1.25738 15.747 2.02011 16.4259 2.89603 17.0075C3.05965 17.1161 3.22927 17.2227 3.40454 17.3271C5.1154 18.354 7.37262 19.169 9.86009 19.6146C12.6654 20.1172 15.3342 19.8482 17.3624 19.2528C17.4734 19.2202 17.583 19.1865 17.6911 19.1517C17.3932 20.4286 17.1905 21.6464 17.0952 22.7256C17.002 23.7795 17.0039 24.7794 17.1591 25.5993C17.2766 26.2194 17.57 27.1943 18.4134 27.6861C18.5259 27.755 18.6486 27.8153 18.7822 27.8647C19.799 28.2407 20.7322 27.7584 21.3118 27.3255C21.9421 26.8547 22.5493 26.1597 23.1117 25.3657C24.248 23.7613 25.3952 21.4749 26.323 18.885C27.2508 16.2951 27.8186 13.7944 27.9631 11.8233C28.0346 10.8478 28.0092 9.91882 27.8243 9.14664C27.6749 8.5231 27.3409 7.69252 26.5736 7.24461C26.4561 7.17267 26.3281 7.10982 26.1888 7.05829C25.2784 6.72163 24.4077 7.02971 23.7795 7.42317C23.1381 7.82492 22.5333 8.44006 21.9792 9.15818C21.5905 9.66176 21.2025 10.248 20.8225 10.9075C20.2012 9.29848 19.2181 7.48736 17.7656 5.72871C16.2016 3.83495 14.4522 2.30057 12.7787 1.30388C12.5379 1.15937 12.2986 1.02594 12.0617 0.904139C11.128 0.424217 10.1679 0.0926004 9.25078 0.0164775C8.32543 -0.0603314 7.34489 0.120298 6.55534 0.793402L6.58269 0.826519C5.80459 1.49633 5.44606 2.46389 5.32072 3.40576C5.19323 4.36383 5.28391 5.43732 5.53366 6.5283ZM10.849 3.44067C11.0201 3.5286 11.1948 3.62557 11.3726 3.73134C12.7068 4.53278 14.2079 5.82669 15.603 7.51596C16.4852 8.5841 17.1594 9.66744 17.6613 10.6826C16.0226 9.79256 13.9624 9.088 11.714 8.68521C10.8305 8.52693 9.95856 8.42253 9.11394 8.37031C8.70389 7.5047 8.41041 6.66127 8.2339 5.89023C8.03633 5.02719 7.9979 4.31023 8.06804 3.78313C8.13972 3.24447 8.30265 3.03704 8.37622 2.97431C8.44634 2.91453 8.62646 2.81069 9.06392 2.847C9.50963 2.884 10.1145 3.06309 10.849 3.44067ZM10.3026 16.8175C8.08449 16.4202 6.17223 15.7095 4.81078 14.8997C4.68624 14.8249 4.5664 14.7492 4.45146 14.6729C3.76234 14.2154 3.30726 13.7728 3.05287 13.3991C2.80319 13.0323 2.80165 12.8219 2.81754 12.7303C2.83344 12.6388 2.90572 12.4416 3.2638 12.1837C3.62865 11.921 4.20527 11.6632 5.00686 11.4727C5.71596 11.3042 6.54815 11.2009 7.46811 11.1764C7.92405 11.9312 8.44839 12.676 9.03893 13.391C10.4383 15.0855 12.094 16.2726 13.7365 17.0081C12.6635 17.0778 11.4985 17.0318 10.3026 16.8175ZM11.2715 11.4823C13.4897 11.8797 15.402 12.5903 16.7635 13.4002C16.8879 13.475 17.0077 13.5506 17.1226 13.6269C17.8117 14.0845 18.2668 14.5271 18.5212 14.9007C18.5551 14.9505 18.5843 14.9973 18.6096 15.0414C18.4913 15.0678 18.3573 15.0895 18.2063 15.1041C17.6361 15.1592 16.9155 15.1012 16.1087 14.8818C14.4976 14.4438 12.6607 13.3945 11.1626 11.5805C11.1252 11.5352 11.088 11.4897 11.0512 11.444C11.1244 11.4564 11.1978 11.4691 11.2715 11.4823ZM24.1997 10.9193C24.5658 10.4449 24.8808 10.1335 25.1241 9.94802C25.1889 10.3206 25.2126 10.8675 25.1596 11.5908C25.0388 13.2384 24.5453 15.4801 23.679 17.8984C22.8127 20.3167 21.7724 22.3562 20.8226 23.6972C20.464 24.2035 20.1444 24.5728 19.8805 24.8209C19.8302 24.3759 19.8278 23.7645 19.8952 23.0006C20.0508 21.2396 20.5518 18.9451 21.3497 16.6409C21.3913 16.5507 21.4285 16.4557 21.4594 16.356C21.5293 16.2046 21.5779 16.0526 21.6124 15.911C22.4403 13.6974 23.367 11.9984 24.1997 10.9193Z" fill="black" fill-opacity="0.25"/>
</svg>
