<svg width="126" height="28" viewBox="0 0 126 28" fill="none" xmlns="http://www.w3.org/2000/svg">
<path fill-rule="evenodd" clip-rule="evenodd" d="M5.42463 6.41287C5.56157 7.0123 5.75117 7.63417 5.99207 8.2662C5.37682 8.32786 4.79354 8.42375 4.25118 8.5529C3.25238 8.79072 2.32571 9.15711 1.58981 9.68816C0.84728 10.224 0.222969 10.9889 0.0475191 12.002C-0.127931 13.015 0.201745 13.9512 0.719485 14.7133C1.2326 15.4685 1.9803 16.1355 2.83897 16.7068C2.99937 16.8135 3.16564 16.9182 3.33746 17.0207C5.01461 18.0295 7.22736 18.8301 9.66581 19.2678C12.4158 19.7615 15.0321 19.4972 17.0203 18.9123C17.1291 18.8803 17.2365 18.8472 17.3425 18.813C17.0505 20.0674 16.8518 21.2637 16.7583 22.3238C16.6671 23.3591 16.6688 24.3413 16.8211 25.1466C16.9362 25.7558 17.2238 26.7134 18.0506 27.1965C18.1609 27.2643 18.2811 27.3235 18.4122 27.372C19.4089 27.7414 20.3237 27.2676 20.8919 26.8423C21.5097 26.3799 22.105 25.6971 22.6563 24.9172C23.7703 23.3412 24.8948 21.0952 25.8044 18.5511C26.7139 16.007 27.2705 13.5505 27.4122 11.6143C27.4823 10.656 27.4573 9.74344 27.276 8.98491C27.1296 8.3724 26.8022 7.5565 26.05 7.11651C25.9348 7.04585 25.8094 6.98411 25.6728 6.93349C24.7803 6.60278 23.9268 6.90541 23.311 7.29192C22.6823 7.68656 22.0893 8.29082 21.5461 8.99624C21.1651 9.49093 20.7847 10.0668 20.4122 10.7147C19.8032 9.13407 18.8394 7.35497 17.4156 5.62742C15.8824 3.76714 14.1674 2.25989 12.5269 1.28082C12.2909 1.13887 12.0563 1.0078 11.824 0.888152C10.9087 0.416716 9.96753 0.0909631 9.06851 0.0161861C8.1614 -0.0592647 7.20018 0.118171 6.42618 0.779373L6.45299 0.811905C5.69022 1.46987 5.33875 2.42032 5.21589 3.34554C5.09091 4.28667 5.1798 5.34118 5.42463 6.41287ZM10.6353 3.37983C10.8029 3.46621 10.9743 3.56146 11.1485 3.66536C12.4564 4.45264 13.9279 5.72366 15.2956 7.38307C16.1604 8.43231 16.8213 9.4965 17.3134 10.4937C15.7069 9.61941 13.6873 8.92731 11.4832 8.53164C10.6171 8.37616 9.76234 8.27361 8.93436 8.22231C8.5324 7.372 8.2447 6.54349 8.07167 5.78608C7.87799 4.9383 7.84031 4.23402 7.90907 3.71624C7.97934 3.1871 8.13906 2.98334 8.21119 2.92172C8.27992 2.863 8.4565 2.76099 8.88533 2.79666C9.32226 2.833 9.91517 3.00893 10.6353 3.37983ZM10.0996 16.5202C7.9252 16.1298 6.05062 15.4318 4.71599 14.6363C4.59391 14.5627 4.47643 14.4884 4.36375 14.4135C3.68821 13.964 3.2421 13.5292 2.99272 13.1622C2.74796 12.8019 2.74645 12.5952 2.76203 12.5053C2.77761 12.4153 2.84847 12.2216 3.19949 11.9683C3.55715 11.7102 4.12242 11.457 4.90821 11.2699C5.60333 11.1043 6.41913 11.0029 7.32097 10.9788C7.76792 11.7202 8.28193 12.4519 8.86084 13.1543C10.2327 14.8187 11.8557 15.9849 13.4659 16.7074C12.414 16.7758 11.2719 16.7306 10.0996 16.5202ZM11.0494 11.2793C13.2239 11.6696 15.0985 12.3677 16.4332 13.1633C16.5552 13.2368 16.6726 13.311 16.7853 13.386C17.4608 13.8354 17.9069 14.2702 18.1563 14.6373C18.1895 14.6861 18.2182 14.7321 18.243 14.7754C18.127 14.8013 17.9956 14.8227 17.8475 14.8371C17.2886 14.8912 16.5823 14.8341 15.7913 14.6186C14.212 14.1884 12.4113 13.1576 10.9427 11.3758C10.906 11.3312 10.8695 11.2865 10.8335 11.2417C10.9052 11.2538 10.9772 11.2663 11.0494 11.2793ZM23.7229 10.7262C24.0818 10.2602 24.3906 9.95433 24.6291 9.77213C24.6926 10.1381 24.7159 10.6754 24.6639 11.3859C24.5454 13.0043 24.0617 15.2064 23.2125 17.5819C22.3632 19.9575 21.3434 21.9609 20.4123 23.2782C20.0608 23.7756 19.7475 24.1383 19.4888 24.382C19.4395 23.9449 19.4371 23.3443 19.5032 22.594C19.6558 20.864 20.1469 18.6102 20.929 16.3467C20.9699 16.258 21.0063 16.1647 21.0366 16.0668C21.1051 15.918 21.1527 15.7688 21.1866 15.6297C21.9981 13.4552 22.9066 11.7862 23.7229 10.7262Z" fill="white"/>
<path d="M31.5381 22.6916C31.3734 22.6916 31.2362 22.6365 31.1264 22.5265C31.0166 22.4165 30.9617 22.279 30.9617 22.1139V4.20825C30.9617 3.87819 31.0715 3.60314 31.2911 3.3831C31.529 3.14473 31.8126 3.02554 32.142 3.02554H37.0278C38.1806 3.02554 39.2419 3.30976 40.2118 3.87819C41.1999 4.44663 41.9776 5.21676 42.5449 6.18861C43.1305 7.16044 43.4232 8.2148 43.4232 9.35167C43.4232 10.5069 43.1305 11.5704 42.5449 12.5422C41.9776 13.5141 41.1999 14.2842 40.2118 14.8527C39.2419 15.4211 38.1806 15.7053 37.0278 15.7053H34.3104V22.1139C34.3104 22.279 34.2555 22.4165 34.1457 22.5265C34.0359 22.6365 33.8987 22.6916 33.734 22.6916H31.5381ZM36.8905 12.5422C37.7689 12.5422 38.5191 12.2305 39.1413 11.6071C39.7635 10.9836 40.0745 10.2318 40.0745 9.35167C40.0745 8.48985 39.7635 7.74722 39.1413 7.12377C38.5191 6.50033 37.7689 6.18861 36.8905 6.18861H34.3104V12.5422H36.8905Z" fill="white"/>
<path d="M48.6515 23.0491C47.1144 23.0491 45.8609 22.6182 44.8911 21.7564C43.9395 20.8762 43.4638 19.7394 43.4638 18.3458C43.4638 17.0805 43.9029 16.0354 44.7813 15.2102C45.6596 14.3667 46.8948 13.8166 48.4868 13.5599C48.8894 13.5232 49.2737 13.4682 49.6396 13.3949C50.9206 13.2482 51.6983 13.1382 51.9727 13.0648C52.6498 12.9548 52.9883 12.5697 52.9883 11.9096C52.9883 11.2312 52.7047 10.6902 52.1374 10.2868C51.5885 9.86509 50.8931 9.65422 50.0514 9.65422C48.5692 9.65422 47.4895 10.1952 46.8125 11.277C46.6661 11.5154 46.4922 11.6346 46.2909 11.6346C46.1446 11.6346 46.0256 11.5979 45.9341 11.5246L44.397 10.4794C44.2323 10.3694 44.15 10.2135 44.15 10.0118C44.15 9.95678 44.1683 9.87426 44.2049 9.76424C44.7355 8.75573 45.5224 7.97642 46.5654 7.42633C47.6085 6.85789 48.7887 6.57367 50.1063 6.57367C51.314 6.57367 52.3753 6.80288 53.2903 7.2613C54.2052 7.71971 54.9097 8.37066 55.4038 9.21415C55.9161 10.0576 56.1723 11.0295 56.1723 12.1297V22.1139C56.1723 22.279 56.1174 22.4165 56.0077 22.5265C55.8979 22.6365 55.7606 22.6916 55.5959 22.6916H53.7294C53.5647 22.6916 53.4275 22.6457 53.3177 22.554C53.2079 22.444 53.153 22.2973 53.153 22.1139V21.0413C51.8904 22.3798 50.3899 23.0491 48.6515 23.0491ZM48.8985 20.1061C49.6122 20.1061 50.2892 19.9227 50.9297 19.556C51.5702 19.1893 52.0825 18.7125 52.4668 18.1257C52.8694 17.5206 53.0707 16.888 53.0707 16.2279V15.6778L51.012 15.9804C49.8958 16.1087 49.173 16.2096 48.8436 16.2829C47.3431 16.558 46.5929 17.2089 46.5929 18.2358C46.5929 18.8042 46.8033 19.2626 47.2242 19.611C47.6451 19.9411 48.2032 20.1061 48.8985 20.1061Z" fill="white"/>
<path d="M58.95 28C58.7853 28 58.648 27.945 58.5383 27.835C58.4285 27.7249 58.3736 27.5874 58.3736 27.4224V7.50884C58.3736 7.34381 58.4285 7.20629 58.5383 7.09627C58.648 6.98625 58.7853 6.93124 58.95 6.93124H60.7341C60.8988 6.93124 61.036 6.98625 61.1458 7.09627C61.2556 7.20629 61.3105 7.34381 61.3105 7.50884V8.74656C61.7863 8.03143 62.3719 7.4905 63.0672 7.12377C63.7809 6.75704 64.5403 6.57367 65.3454 6.57367C66.4251 6.57367 67.4315 6.86706 68.3647 7.45383C69.3163 8.02227 70.0665 8.7924 70.6155 9.76424C71.1828 10.7361 71.4664 11.7813 71.4664 12.8998V16.723C71.4664 17.8415 71.1919 18.8867 70.643 19.8585C70.094 20.8304 69.3529 21.6097 68.4197 22.1965C67.4864 22.7649 66.4617 23.0491 65.3454 23.0491C64.6684 23.0491 64.0096 22.9116 63.3692 22.6365C62.747 22.3432 62.1797 21.9306 61.6674 21.3988V27.4224C61.6674 27.5874 61.6125 27.7249 61.5027 27.835C61.3929 27.945 61.2556 28 61.0909 28H58.95ZM64.9337 19.8861C65.8304 19.8861 66.5898 19.5743 67.2119 18.9509C67.8524 18.3091 68.1726 17.539 68.1726 16.6405V12.9823C68.1726 12.0838 67.8524 11.3229 67.2119 10.6994C66.5898 10.0576 65.8304 9.73674 64.9337 9.73674C64.0371 9.73674 63.2685 10.0576 62.6281 10.6994C61.9876 11.3229 61.6674 12.0838 61.6674 12.9823V16.6405C61.6674 17.539 61.9876 18.3091 62.6281 18.9509C63.2685 19.5743 64.0371 19.8861 64.9337 19.8861Z" fill="white"/>
<path d="M75.5148 5.08841C75.3501 5.08841 75.2129 5.0334 75.1031 4.92338C74.9933 4.81336 74.9384 4.67583 74.9384 4.51081V1.51277C74.9384 1.34774 74.9933 1.21022 75.1031 1.1002C75.2129 0.990177 75.3501 0.935167 75.5148 0.935167H77.3813C77.546 0.935167 77.6832 0.990177 77.793 1.1002C77.9028 1.21022 77.9577 1.34774 77.9577 1.51277V4.51081C77.9577 4.67583 77.9028 4.81336 77.793 4.92338C77.6832 5.0334 77.546 5.08841 77.3813 5.08841H75.5148ZM76.1736 22.6916C75.7893 22.6916 75.4599 22.5632 75.1854 22.3065C74.9293 22.0314 74.8012 21.7014 74.8012 21.3163V10.0668H72.5778C72.4132 10.0668 72.2759 10.0118 72.1661 9.90177C72.0563 9.79175 72.0014 9.65422 72.0014 9.48919V7.50884C72.0014 7.34381 72.0563 7.20629 72.1661 7.09627C72.2759 6.98625 72.4132 6.93124 72.5778 6.93124H76.7225C77.1068 6.93124 77.4271 7.06876 77.6832 7.34381C77.9577 7.60052 78.095 7.92141 78.095 8.30648V19.556H80.3183C80.483 19.556 80.6202 19.611 80.73 19.721C80.8398 19.831 80.8947 19.9686 80.8947 20.1336V22.1139C80.8947 22.279 80.8398 22.4165 80.73 22.5265C80.6202 22.6365 80.483 22.6916 80.3183 22.6916H76.1736Z" fill="white"/>
<path d="M84.2357 22.6916C83.9063 22.6916 83.6227 22.5815 83.3848 22.3615C83.1652 22.1231 83.0554 21.8389 83.0554 21.5088V4.81336H80.5576C80.3929 4.81336 80.2557 4.75835 80.1459 4.64833C80.0361 4.53831 79.9812 4.40079 79.9812 4.23576V2.20039C79.9812 2.03536 80.0361 1.89784 80.1459 1.78782C80.2557 1.6778 80.3929 1.62279 80.5576 1.62279H85.1689C85.4983 1.62279 85.7728 1.74198 85.9924 1.98035C86.2302 2.20039 86.3492 2.47544 86.3492 2.8055V19.501H88.847C89.0117 19.501 89.1489 19.556 89.2587 19.666C89.3685 19.776 89.4234 19.9136 89.4234 20.0786V22.1139C89.4234 22.279 89.3685 22.4165 89.2587 22.5265C89.1489 22.6365 89.0117 22.6916 88.847 22.6916H84.2357Z" fill="white"/>
<path d="M92.7414 22.6916C92.412 22.6916 92.1284 22.5815 91.8905 22.3615C91.6709 22.1231 91.5611 21.8389 91.5611 21.5088V4.81336H89.0634C88.8987 4.81336 88.7614 4.75835 88.6516 4.64833C88.5418 4.53831 88.4869 4.40079 88.4869 4.23576V2.20039C88.4869 2.03536 88.5418 1.89784 88.6516 1.78782C88.7614 1.6778 88.8987 1.62279 89.0634 1.62279H93.6747C94.004 1.62279 94.2785 1.74198 94.4981 1.98035C94.736 2.20039 94.8549 2.47544 94.8549 2.8055V19.501H97.3527C97.5174 19.501 97.6547 19.556 97.7645 19.666C97.8743 19.776 97.9292 19.9136 97.9292 20.0786V22.1139C97.9292 22.279 97.8743 22.4165 97.7645 22.5265C97.6547 22.6365 97.5174 22.6916 97.3527 22.6916H92.7414Z" fill="white"/>
<path d="M104.706 23.0491C103.516 23.0491 102.418 22.7649 101.412 22.1965C100.424 21.6097 99.6369 20.8212 99.0513 19.831C98.4658 18.8409 98.173 17.7682 98.173 16.613V13.0098C98.173 11.8546 98.4658 10.7819 99.0513 9.79175C99.6369 8.80157 100.424 8.02227 101.412 7.45383C102.418 6.86706 103.516 6.57367 104.706 6.57367C105.895 6.57367 106.984 6.86706 107.972 7.45383C108.978 8.02227 109.774 8.80157 110.36 9.79175C110.946 10.7819 111.238 11.8546 111.238 13.0098V16.613C111.238 17.7682 110.946 18.8409 110.36 19.831C109.774 20.8212 108.978 21.6097 107.972 22.1965C106.984 22.7649 105.895 23.0491 104.706 23.0491ZM104.706 19.8585C105.602 19.8585 106.362 19.5468 106.984 18.9234C107.624 18.2816 107.945 17.5115 107.945 16.613V13.0098C107.945 12.1113 107.624 11.3504 106.984 10.7269C106.362 10.0851 105.602 9.76424 104.706 9.76424C103.809 9.76424 103.04 10.0851 102.4 10.7269C101.778 11.3504 101.467 12.1113 101.467 13.0098V16.613C101.467 17.5115 101.778 18.2816 102.4 18.9234C103.04 19.5468 103.809 19.8585 104.706 19.8585Z" fill="white"/>
<path d="M113.648 22.6916C113.484 22.6916 113.346 22.6365 113.237 22.5265C113.127 22.4165 113.072 22.279 113.072 22.1139V7.50884C113.072 7.34381 113.127 7.20629 113.237 7.09627C113.346 6.98625 113.484 6.93124 113.648 6.93124H115.789C115.954 6.93124 116.091 6.98625 116.201 7.09627C116.311 7.20629 116.366 7.34381 116.366 7.50884V8.80157C116.878 8.10478 117.482 7.56385 118.177 7.17878C118.891 6.77538 119.669 6.57367 120.51 6.57367C121.553 6.57367 122.487 6.82122 123.31 7.31631C124.152 7.8114 124.811 8.49902 125.286 9.37917C125.762 10.2593 126 11.2495 126 12.3497V22.1139C126 22.279 125.945 22.4165 125.835 22.5265C125.726 22.6365 125.588 22.6916 125.424 22.6916H123.283C123.118 22.6916 122.981 22.6365 122.871 22.5265C122.761 22.4165 122.706 22.279 122.706 22.1139V12.7623C122.706 11.7904 122.459 11.0478 121.965 10.5344C121.471 10.0026 120.776 9.73674 119.879 9.73674C118.799 9.73674 117.939 10.0943 117.299 10.8094C116.677 11.5062 116.366 12.4689 116.366 13.6974V22.1139C116.366 22.279 116.311 22.4165 116.201 22.5265C116.091 22.6365 115.954 22.6916 115.789 22.6916H113.648Z" fill="white"/>
</svg>
