<svg width="262" height="18" viewBox="0 0 262 18" fill="none" xmlns="http://www.w3.org/2000/svg">
<path d="M3.72 13.695C3.18 13.695 2.66 13.61 2.16 13.44C1.66 13.27 1.215 13.035 0.825 12.735C0.775 12.695 0.74 12.645 0.72 12.585C0.71 12.515 0.715 12.45 0.735 12.39C0.805 12.23 0.975 11.915 1.245 11.445C1.325 11.325 1.425 11.265 1.545 11.265C1.615 11.265 1.685 11.285 1.755 11.325C2.115 11.575 2.45 11.76 2.76 11.88C3.08 11.99 3.415 12.045 3.765 12.045C4.185 12.045 4.505 11.97 4.725 11.82C4.945 11.66 5.055 11.445 5.055 11.175C5.055 10.945 4.96 10.765 4.77 10.635C4.58 10.505 4.22 10.34 3.69 10.14L3.15 9.93C2.71 9.76 2.335 9.58 2.025 9.39C1.715 9.19 1.45 8.92 1.23 8.58C1.02 8.24 0.915 7.815 0.915 7.305C0.915 6.515 1.175 5.89 1.695 5.43C2.225 4.96 2.925 4.725 3.795 4.725C4.305 4.725 4.805 4.81 5.295 4.98C5.785 5.14 6.215 5.365 6.585 5.655C6.635 5.695 6.665 5.75 6.675 5.82C6.695 5.88 6.695 5.94 6.675 6C6.585 6.21 6.435 6.525 6.225 6.945C6.165 7.055 6.07 7.11 5.94 7.11C5.87 7.11 5.8 7.09 5.73 7.05C5.04 6.6 4.4 6.375 3.81 6.375C3.47 6.375 3.2 6.45 3 6.6C2.81 6.74 2.715 6.94 2.715 7.2C2.715 7.46 2.825 7.68 3.045 7.86C3.265 8.03 3.67 8.23 4.26 8.46C4.83 8.68 5.27 8.87 5.58 9.03C5.9 9.18 6.19 9.425 6.45 9.765C6.72 10.095 6.855 10.525 6.855 11.055C6.855 11.575 6.72 12.035 6.45 12.435C6.19 12.835 5.82 13.145 5.34 13.365C4.87 13.585 4.33 13.695 3.72 13.695ZM11.8482 13.695C11.1982 13.695 10.5982 13.54 10.0482 13.23C9.50824 12.91 9.07824 12.48 8.75824 11.94C8.43824 11.4 8.27824 10.815 8.27824 10.185V8.22C8.27824 7.59 8.43824 7.005 8.75824 6.465C9.07824 5.925 9.50824 5.5 10.0482 5.19C10.5982 4.87 11.1982 4.71 11.8482 4.71C12.4982 4.71 13.0932 4.87 13.6332 5.19C14.1832 5.5 14.6182 5.925 14.9382 6.465C15.2582 7.005 15.4182 7.59 15.4182 8.22V10.185C15.4182 10.815 15.2582 11.4 14.9382 11.94C14.6182 12.48 14.1832 12.91 13.6332 13.23C13.0932 13.54 12.4982 13.695 11.8482 13.695ZM11.8482 11.955C12.3382 11.955 12.7532 11.785 13.0932 11.445C13.4432 11.095 13.6182 10.675 13.6182 10.185V8.22C13.6182 7.73 13.4432 7.315 13.0932 6.975C12.7532 6.625 12.3382 6.45 11.8482 6.45C11.3582 6.45 10.9382 6.625 10.5882 6.975C10.2482 7.315 10.0782 7.73 10.0782 8.22V10.185C10.0782 10.675 10.2482 11.095 10.5882 11.445C10.9382 11.785 11.3582 11.955 11.8482 11.955ZM20.2427 13.695C19.6727 13.695 19.1577 13.56 18.6977 13.29C18.2477 13.02 17.8927 12.645 17.6327 12.165C17.3727 11.685 17.2427 11.145 17.2427 10.545V5.22C17.2427 5.13 17.2727 5.055 17.3327 4.995C17.3927 4.935 17.4677 4.905 17.5577 4.905H18.7277C18.8177 4.905 18.8927 4.935 18.9527 4.995C19.0127 5.055 19.0427 5.13 19.0427 5.22V10.32C19.0427 10.85 19.1777 11.26 19.4477 11.55C19.7177 11.83 20.0977 11.97 20.5877 11.97C21.1777 11.97 21.6427 11.78 21.9827 11.4C22.3327 11.01 22.5077 10.48 22.5077 9.81V5.22C22.5077 5.13 22.5377 5.055 22.5977 4.995C22.6577 4.935 22.7327 4.905 22.8227 4.905H23.9927C24.0827 4.905 24.1577 4.935 24.2177 4.995C24.2777 5.055 24.3077 5.13 24.3077 5.22V13.185C24.3077 13.275 24.2777 13.35 24.2177 13.41C24.1577 13.47 24.0827 13.5 23.9927 13.5H22.8227C22.7327 13.5 22.6577 13.47 22.5977 13.41C22.5377 13.35 22.5077 13.275 22.5077 13.185V12.48C22.2277 12.86 21.8927 13.16 21.5027 13.38C21.1227 13.59 20.7027 13.695 20.2427 13.695ZM29.8752 13.5C29.0952 13.5 28.4602 13.26 27.9702 12.78C27.4902 12.3 27.2502 11.67 27.2502 10.89V6.585H26.2152C26.1252 6.585 26.0502 6.555 25.9902 6.495C25.9302 6.435 25.9002 6.36 25.9002 6.27V5.22C25.9002 5.13 25.9302 5.055 25.9902 4.995C26.0502 4.935 26.1252 4.905 26.2152 4.905H27.2502V3.285C27.2502 3.195 27.2802 3.12 27.3402 3.06C27.4002 3 27.4752 2.97 27.5652 2.97H28.7352C28.8252 2.97 28.9002 3 28.9602 3.06C29.0202 3.12 29.0502 3.195 29.0502 3.285V4.905H31.5852C31.6752 4.905 31.7502 4.935 31.8102 4.995C31.8702 5.055 31.9002 5.13 31.9002 5.22V6.285C31.9002 6.375 31.8702 6.45 31.8102 6.51C31.7502 6.57 31.6752 6.6 31.5852 6.6H29.0502V10.815C29.0502 11.115 29.1352 11.355 29.3052 11.535C29.4852 11.715 29.7202 11.805 30.0102 11.805L31.5852 11.82C31.6752 11.82 31.7502 11.85 31.8102 11.91C31.8702 11.97 31.9002 12.045 31.9002 12.135V13.185C31.9002 13.275 31.8702 13.35 31.8102 13.41C31.7502 13.47 31.6752 13.5 31.5852 13.5H29.8752ZM36.7107 13.5C36.0607 13.5 35.4607 13.34 34.9107 13.02C34.3707 12.7 33.9407 12.265 33.6207 11.715C33.3007 11.165 33.1407 10.565 33.1407 9.915V8.295C33.1407 7.645 33.3007 7.045 33.6207 6.495C33.9407 5.945 34.3707 5.51 34.9107 5.19C35.4607 4.87 36.0607 4.71 36.7107 4.71C37.3607 4.71 37.9557 4.87 38.4957 5.19C39.0457 5.51 39.4807 5.945 39.8007 6.495C40.1207 7.045 40.2807 7.645 40.2807 8.295V9.3C40.2807 9.48 40.2157 9.635 40.0857 9.765C39.9657 9.885 39.8157 9.945 39.6357 9.945H34.9407V10.02C34.9407 10.51 35.1107 10.93 35.4507 11.28C35.8007 11.62 36.2207 11.79 36.7107 11.79H39.0957C39.1857 11.79 39.2607 11.82 39.3207 11.88C39.3807 11.94 39.4107 12.015 39.4107 12.105V13.185C39.4107 13.275 39.3807 13.35 39.3207 13.41C39.2607 13.47 39.1857 13.5 39.0957 13.5H36.7107ZM38.4807 8.325V8.19C38.4807 7.7 38.3057 7.285 37.9557 6.945C37.6157 6.595 37.2007 6.42 36.7107 6.42C36.2207 6.42 35.8007 6.595 35.4507 6.945C35.1107 7.285 34.9407 7.7 34.9407 8.19V8.325H38.4807ZM42.3952 13.5C42.3052 13.5 42.2302 13.47 42.1702 13.41C42.1102 13.35 42.0802 13.275 42.0802 13.185V5.22C42.0802 5.13 42.1102 5.055 42.1702 4.995C42.2302 4.935 42.3052 4.905 42.3952 4.905H43.5652C43.6552 4.905 43.7302 4.935 43.7902 4.995C43.8502 5.055 43.8802 5.13 43.8802 5.22V5.925C44.1602 5.545 44.4902 5.25 44.8702 5.04C45.2602 4.82 45.6852 4.71 46.1452 4.71C46.7152 4.71 47.2252 4.845 47.6752 5.115C48.1352 5.385 48.4952 5.76 48.7552 6.24C49.0152 6.72 49.1452 7.26 49.1452 7.86V13.185C49.1452 13.275 49.1152 13.35 49.0552 13.41C48.9952 13.47 48.9202 13.5 48.8302 13.5H47.6602C47.5702 13.5 47.4952 13.47 47.4352 13.41C47.3752 13.35 47.3452 13.275 47.3452 13.185V8.085C47.3452 7.555 47.2102 7.15 46.9402 6.87C46.6702 6.58 46.2902 6.435 45.8002 6.435C45.2102 6.435 44.7402 6.63 44.3902 7.02C44.0502 7.4 43.8802 7.925 43.8802 8.595V13.185C43.8802 13.275 43.8502 13.35 43.7902 13.41C43.7302 13.47 43.6552 13.5 43.5652 13.5H42.3952ZM54.1545 13.695C53.5845 13.695 53.0695 13.56 52.6095 13.29C52.1595 13.02 51.8045 12.645 51.5445 12.165C51.2845 11.685 51.1545 11.145 51.1545 10.545V5.22C51.1545 5.13 51.1845 5.055 51.2445 4.995C51.3045 4.935 51.3795 4.905 51.4695 4.905H52.6395C52.7295 4.905 52.8045 4.935 52.8645 4.995C52.9245 5.055 52.9545 5.13 52.9545 5.22V10.32C52.9545 10.85 53.0895 11.26 53.3595 11.55C53.6295 11.83 54.0095 11.97 54.4995 11.97C55.0895 11.97 55.5545 11.78 55.8945 11.4C56.2445 11.01 56.4195 10.48 56.4195 9.81V5.22C56.4195 5.13 56.4495 5.055 56.5095 4.995C56.5695 4.935 56.6445 4.905 56.7345 4.905H57.9045C57.9945 4.905 58.0695 4.935 58.1295 4.995C58.1895 5.055 58.2195 5.13 58.2195 5.22V13.185C58.2195 13.275 58.1895 13.35 58.1295 13.41C58.0695 13.47 57.9945 13.5 57.9045 13.5H56.7345C56.6445 13.5 56.5695 13.47 56.5095 13.41C56.4495 13.35 56.4195 13.275 56.4195 13.185V12.48C56.1395 12.86 55.8045 13.16 55.4145 13.38C55.0345 13.59 54.6145 13.695 54.1545 13.695ZM73.1319 16.395C71.9519 16.395 71.0469 15.92 70.4169 14.97L69.3519 13.35C68.7119 13.58 68.0519 13.695 67.3719 13.695C66.2519 13.695 65.3619 13.43 64.7019 12.9C64.0419 12.36 63.7119 11.635 63.7119 10.725C63.7119 10.145 63.8719 9.63 64.1919 9.18C64.5219 8.72 65.0119 8.23 65.6619 7.71C65.4119 7.29 65.2119 6.885 65.0619 6.495C64.9119 6.095 64.8369 5.685 64.8369 5.265C64.8369 4.755 64.9519 4.295 65.1819 3.885C65.4219 3.475 65.7469 3.155 66.1569 2.925C66.5669 2.695 67.0269 2.58 67.5369 2.58C68.0069 2.58 68.4319 2.68 68.8119 2.88C69.2019 3.08 69.5019 3.355 69.7119 3.705C69.9319 4.045 70.0419 4.415 70.0419 4.815C70.0419 5.345 69.8619 5.85 69.5019 6.33C69.1419 6.8 68.6019 7.34 67.8819 7.95L69.9669 11.115C70.3469 10.765 70.6419 10.355 70.8519 9.885C71.0619 9.415 71.1669 8.925 71.1669 8.415V8.235C71.1669 8.145 71.1969 8.07 71.2569 8.01C71.3169 7.95 71.3919 7.92 71.4819 7.92H72.6069C72.6969 7.92 72.7719 7.95 72.8319 8.01C72.8919 8.07 72.9219 8.145 72.9219 8.235V8.415C72.9219 9.205 72.7419 9.96 72.3819 10.68C72.0319 11.4 71.5319 12.015 70.8819 12.525L71.6619 13.695C71.9319 14.105 72.1769 14.37 72.3969 14.49C72.6269 14.62 72.9469 14.685 73.3569 14.685H73.9569C74.0469 14.685 74.1219 14.715 74.1819 14.775C74.2419 14.835 74.2719 14.91 74.2719 15V16.08C74.2719 16.17 74.2419 16.245 74.1819 16.305C74.1219 16.365 74.0469 16.395 73.9569 16.395H73.1319ZM67.0119 6.6C67.5419 6.15 67.8969 5.81 68.0769 5.58C68.2669 5.35 68.3619 5.135 68.3619 4.935C68.3619 4.705 68.2819 4.52 68.1219 4.38C67.9619 4.23 67.7519 4.155 67.4919 4.155C67.2119 4.155 66.9919 4.245 66.8319 4.425C66.6719 4.595 66.5919 4.85 66.5919 5.19C66.5919 5.62 66.7319 6.09 67.0119 6.6ZM67.4769 12.03C67.7769 12.03 68.0869 11.99 68.4069 11.91L66.5169 9.075C66.1269 9.395 65.8569 9.67 65.7069 9.9C65.5569 10.13 65.4819 10.375 65.4819 10.635C65.4819 11.085 65.6519 11.43 65.9919 11.67C66.3419 11.91 66.8369 12.03 67.4769 12.03ZM78.7496 13.5C78.6596 13.5 78.5846 13.47 78.5246 13.41C78.4646 13.35 78.4346 13.275 78.4346 13.185V5.22C78.4346 5.13 78.4646 5.055 78.5246 4.995C78.5846 4.935 78.6596 4.905 78.7496 4.905H79.9196C80.0096 4.905 80.0846 4.935 80.1446 4.995C80.2046 5.055 80.2346 5.13 80.2346 5.22V6C80.5246 5.57 80.8646 5.25 81.2546 5.04C81.6546 4.82 82.0746 4.71 82.5146 4.71C83.0646 4.71 83.5496 4.84 83.9696 5.1C84.3996 5.36 84.7396 5.73 84.9896 6.21C85.2696 5.74 85.6446 5.375 86.1146 5.115C86.5846 4.845 87.0896 4.71 87.6296 4.71C88.4996 4.71 89.1896 5 89.6996 5.58C90.2096 6.15 90.4646 6.91 90.4646 7.86V13.185C90.4646 13.275 90.4346 13.35 90.3746 13.41C90.3146 13.47 90.2396 13.5 90.1496 13.5H88.9796C88.8896 13.5 88.8146 13.47 88.7546 13.41C88.6946 13.35 88.6646 13.275 88.6646 13.185V8.085C88.6646 7.555 88.5446 7.15 88.3046 6.87C88.0646 6.58 87.7196 6.435 87.2696 6.435C86.6796 6.435 86.2096 6.63 85.8596 7.02C85.5196 7.4 85.3496 7.925 85.3496 8.595V13.185C85.3496 13.275 85.3196 13.35 85.2596 13.41C85.1996 13.47 85.1246 13.5 85.0346 13.5H83.8646C83.7746 13.5 83.6996 13.47 83.6396 13.41C83.5796 13.35 83.5496 13.275 83.5496 13.185V8.085C83.5496 7.555 83.4296 7.15 83.1896 6.87C82.9496 6.58 82.6046 6.435 82.1546 6.435C81.5646 6.435 81.0946 6.63 80.7446 7.02C80.4046 7.4 80.2346 7.925 80.2346 8.595V13.185C80.2346 13.275 80.2046 13.35 80.1446 13.41C80.0846 13.47 80.0096 13.5 79.9196 13.5H78.7496ZM94.8465 13.695C94.0065 13.695 93.3215 13.46 92.7915 12.99C92.2715 12.51 92.0115 11.89 92.0115 11.13C92.0115 10.44 92.2515 9.87 92.7315 9.42C93.2115 8.96 93.8865 8.66 94.7565 8.52C94.9765 8.5 95.1865 8.47 95.3865 8.43C96.0865 8.35 96.5115 8.29 96.6615 8.25C97.0315 8.19 97.2165 7.98 97.2165 7.62C97.2165 7.25 97.0615 6.955 96.7515 6.735C96.4515 6.505 96.0715 6.39 95.6115 6.39C94.8015 6.39 94.2115 6.685 93.8415 7.275C93.7615 7.405 93.6665 7.47 93.5565 7.47C93.4765 7.47 93.4115 7.45 93.3615 7.41L92.5215 6.84C92.4315 6.78 92.3865 6.695 92.3865 6.585C92.3865 6.555 92.3965 6.51 92.4165 6.45C92.7065 5.9 93.1365 5.475 93.7065 5.175C94.2765 4.865 94.9215 4.71 95.6415 4.71C96.3015 4.71 96.8815 4.835 97.3815 5.085C97.8815 5.335 98.2665 5.69 98.5365 6.15C98.8165 6.61 98.9565 7.14 98.9565 7.74V13.185C98.9565 13.275 98.9265 13.35 98.8665 13.41C98.8065 13.47 98.7315 13.5 98.6415 13.5H97.6215C97.5315 13.5 97.4565 13.475 97.3965 13.425C97.3365 13.365 97.3065 13.285 97.3065 13.185V12.6C96.6165 13.33 95.7965 13.695 94.8465 13.695ZM94.9815 12.09C95.3715 12.09 95.7415 11.99 96.0915 11.79C96.4415 11.59 96.7215 11.33 96.9315 11.01C97.1515 10.68 97.2615 10.335 97.2615 9.975V9.675L96.1365 9.84C95.5265 9.91 95.1315 9.965 94.9515 10.005C94.1315 10.155 93.7215 10.51 93.7215 11.07C93.7215 11.38 93.8365 11.63 94.0665 11.82C94.2965 12 94.6015 12.09 94.9815 12.09ZM102.336 3.9C102.246 3.9 102.171 3.87 102.111 3.81C102.051 3.75 102.021 3.675 102.021 3.585V1.95C102.021 1.86 102.051 1.785 102.111 1.725C102.171 1.665 102.246 1.635 102.336 1.635H103.356C103.446 1.635 103.521 1.665 103.581 1.725C103.641 1.785 103.671 1.86 103.671 1.95V3.585C103.671 3.675 103.641 3.75 103.581 3.81C103.521 3.87 103.446 3.9 103.356 3.9H102.336ZM102.696 13.5C102.486 13.5 102.306 13.43 102.156 13.29C102.016 13.14 101.946 12.96 101.946 12.75V6.615H100.731C100.641 6.615 100.566 6.585 100.506 6.525C100.446 6.465 100.416 6.39 100.416 6.3V5.22C100.416 5.13 100.446 5.055 100.506 4.995C100.566 4.935 100.641 4.905 100.731 4.905H102.996C103.206 4.905 103.381 4.98 103.521 5.13C103.671 5.27 103.746 5.445 103.746 5.655V11.79H104.961C105.051 11.79 105.126 11.82 105.186 11.88C105.246 11.94 105.276 12.015 105.276 12.105V13.185C105.276 13.275 105.246 13.35 105.186 13.41C105.126 13.47 105.051 13.5 104.961 13.5H102.696ZM107.098 13.5C107.008 13.5 106.933 13.47 106.873 13.41C106.813 13.35 106.783 13.275 106.783 13.185V5.22C106.783 5.13 106.813 5.055 106.873 4.995C106.933 4.935 107.008 4.905 107.098 4.905H108.268C108.358 4.905 108.433 4.935 108.493 4.995C108.553 5.055 108.583 5.13 108.583 5.22V5.925C108.863 5.545 109.193 5.25 109.573 5.04C109.963 4.82 110.388 4.71 110.848 4.71C111.418 4.71 111.928 4.845 112.378 5.115C112.838 5.385 113.198 5.76 113.458 6.24C113.718 6.72 113.848 7.26 113.848 7.86V13.185C113.848 13.275 113.818 13.35 113.758 13.41C113.698 13.47 113.623 13.5 113.533 13.5H112.363C112.273 13.5 112.198 13.47 112.138 13.41C112.078 13.35 112.048 13.275 112.048 13.185V8.085C112.048 7.555 111.913 7.15 111.643 6.87C111.373 6.58 110.993 6.435 110.503 6.435C109.913 6.435 109.443 6.63 109.093 7.02C108.753 7.4 108.583 7.925 108.583 8.595V13.185C108.583 13.275 108.553 13.35 108.493 13.41C108.433 13.47 108.358 13.5 108.268 13.5H107.098ZM119.148 13.5C118.368 13.5 117.733 13.26 117.243 12.78C116.763 12.3 116.523 11.67 116.523 10.89V6.585H115.488C115.398 6.585 115.323 6.555 115.263 6.495C115.203 6.435 115.173 6.36 115.173 6.27V5.22C115.173 5.13 115.203 5.055 115.263 4.995C115.323 4.935 115.398 4.905 115.488 4.905H116.523V3.285C116.523 3.195 116.553 3.12 116.613 3.06C116.673 3 116.748 2.97 116.838 2.97H118.008C118.098 2.97 118.173 3 118.233 3.06C118.293 3.12 118.323 3.195 118.323 3.285V4.905H120.858C120.948 4.905 121.023 4.935 121.083 4.995C121.143 5.055 121.173 5.13 121.173 5.22V6.285C121.173 6.375 121.143 6.45 121.083 6.51C121.023 6.57 120.948 6.6 120.858 6.6H118.323V10.815C118.323 11.115 118.408 11.355 118.578 11.535C118.758 11.715 118.993 11.805 119.283 11.805L120.858 11.82C120.948 11.82 121.023 11.85 121.083 11.91C121.143 11.97 121.173 12.045 121.173 12.135V13.185C121.173 13.275 121.143 13.35 121.083 13.41C121.023 13.47 120.948 13.5 120.858 13.5H119.148ZM125.984 13.5C125.334 13.5 124.734 13.34 124.184 13.02C123.644 12.7 123.214 12.265 122.894 11.715C122.574 11.165 122.414 10.565 122.414 9.915V8.295C122.414 7.645 122.574 7.045 122.894 6.495C123.214 5.945 123.644 5.51 124.184 5.19C124.734 4.87 125.334 4.71 125.984 4.71C126.634 4.71 127.229 4.87 127.769 5.19C128.319 5.51 128.754 5.945 129.074 6.495C129.394 7.045 129.554 7.645 129.554 8.295V9.3C129.554 9.48 129.489 9.635 129.359 9.765C129.239 9.885 129.089 9.945 128.909 9.945H124.214V10.02C124.214 10.51 124.384 10.93 124.724 11.28C125.074 11.62 125.494 11.79 125.984 11.79H128.369C128.459 11.79 128.534 11.82 128.594 11.88C128.654 11.94 128.684 12.015 128.684 12.105V13.185C128.684 13.275 128.654 13.35 128.594 13.41C128.534 13.47 128.459 13.5 128.369 13.5H125.984ZM127.754 8.325V8.19C127.754 7.7 127.579 7.285 127.229 6.945C126.889 6.595 126.474 6.42 125.984 6.42C125.494 6.42 125.074 6.595 124.724 6.945C124.384 7.285 124.214 7.7 124.214 8.19V8.325H127.754ZM131.668 13.5C131.578 13.5 131.503 13.47 131.443 13.41C131.383 13.35 131.353 13.275 131.353 13.185V5.22C131.353 5.13 131.383 5.055 131.443 4.995C131.503 4.935 131.578 4.905 131.668 4.905H132.838C132.928 4.905 133.003 4.935 133.063 4.995C133.123 5.055 133.153 5.13 133.153 5.22V5.925C133.433 5.545 133.763 5.25 134.143 5.04C134.533 4.82 134.958 4.71 135.418 4.71C135.988 4.71 136.498 4.845 136.948 5.115C137.408 5.385 137.768 5.76 138.028 6.24C138.288 6.72 138.418 7.26 138.418 7.86V13.185C138.418 13.275 138.388 13.35 138.328 13.41C138.268 13.47 138.193 13.5 138.103 13.5H136.933C136.843 13.5 136.768 13.47 136.708 13.41C136.648 13.35 136.618 13.275 136.618 13.185V8.085C136.618 7.555 136.483 7.15 136.213 6.87C135.943 6.58 135.563 6.435 135.073 6.435C134.483 6.435 134.013 6.63 133.663 7.02C133.323 7.4 133.153 7.925 133.153 8.595V13.185C133.153 13.275 133.123 13.35 133.063 13.41C133.003 13.47 132.928 13.5 132.838 13.5H131.668ZM143.427 13.695C142.857 13.695 142.342 13.56 141.882 13.29C141.432 13.02 141.077 12.645 140.817 12.165C140.557 11.685 140.427 11.145 140.427 10.545V5.22C140.427 5.13 140.457 5.055 140.517 4.995C140.577 4.935 140.652 4.905 140.742 4.905H141.912C142.002 4.905 142.077 4.935 142.137 4.995C142.197 5.055 142.227 5.13 142.227 5.22V10.32C142.227 10.85 142.362 11.26 142.632 11.55C142.902 11.83 143.282 11.97 143.772 11.97C144.362 11.97 144.827 11.78 145.167 11.4C145.517 11.01 145.692 10.48 145.692 9.81V5.22C145.692 5.13 145.722 5.055 145.782 4.995C145.842 4.935 145.917 4.905 146.007 4.905H147.177C147.267 4.905 147.342 4.935 147.402 4.995C147.462 5.055 147.492 5.13 147.492 5.22V13.185C147.492 13.275 147.462 13.35 147.402 13.41C147.342 13.47 147.267 13.5 147.177 13.5H146.007C145.917 13.5 145.842 13.47 145.782 13.41C145.722 13.35 145.692 13.275 145.692 13.185V12.48C145.412 12.86 145.077 13.16 144.687 13.38C144.307 13.59 143.887 13.695 143.427 13.695ZM153.645 16.395C153.555 16.395 153.48 16.365 153.42 16.305C153.36 16.245 153.33 16.17 153.33 16.08V5.22C153.33 5.13 153.36 5.055 153.42 4.995C153.48 4.935 153.555 4.905 153.645 4.905H154.62C154.71 4.905 154.785 4.935 154.845 4.995C154.905 5.055 154.935 5.13 154.935 5.22V5.895C155.195 5.505 155.515 5.21 155.895 5.01C156.285 4.81 156.7 4.71 157.14 4.71C157.73 4.71 158.28 4.87 158.79 5.19C159.31 5.5 159.72 5.92 160.02 6.45C160.33 6.98 160.485 7.55 160.485 8.16V10.245C160.485 10.855 160.335 11.425 160.035 11.955C159.735 12.485 159.33 12.91 158.82 13.23C158.31 13.54 157.75 13.695 157.14 13.695C156.77 13.695 156.41 13.62 156.06 13.47C155.72 13.31 155.41 13.085 155.13 12.795V16.08C155.13 16.17 155.1 16.245 155.04 16.305C154.98 16.365 154.905 16.395 154.815 16.395H153.645ZM156.915 11.97C157.405 11.97 157.82 11.8 158.16 11.46C158.51 11.11 158.685 10.69 158.685 10.2V8.205C158.685 7.715 158.51 7.3 158.16 6.96C157.82 6.61 157.405 6.435 156.915 6.435C156.425 6.435 156.005 6.61 155.655 6.96C155.305 7.3 155.13 7.715 155.13 8.205V10.2C155.13 10.69 155.305 11.11 155.655 11.46C156.005 11.8 156.425 11.97 156.915 11.97ZM164.659 13.695C163.819 13.695 163.134 13.46 162.604 12.99C162.084 12.51 161.824 11.89 161.824 11.13C161.824 10.44 162.064 9.87 162.544 9.42C163.024 8.96 163.699 8.66 164.569 8.52C164.789 8.5 164.999 8.47 165.199 8.43C165.899 8.35 166.324 8.29 166.474 8.25C166.844 8.19 167.029 7.98 167.029 7.62C167.029 7.25 166.874 6.955 166.564 6.735C166.264 6.505 165.884 6.39 165.424 6.39C164.614 6.39 164.024 6.685 163.654 7.275C163.574 7.405 163.479 7.47 163.369 7.47C163.289 7.47 163.224 7.45 163.174 7.41L162.334 6.84C162.244 6.78 162.199 6.695 162.199 6.585C162.199 6.555 162.209 6.51 162.229 6.45C162.519 5.9 162.949 5.475 163.519 5.175C164.089 4.865 164.734 4.71 165.454 4.71C166.114 4.71 166.694 4.835 167.194 5.085C167.694 5.335 168.079 5.69 168.349 6.15C168.629 6.61 168.769 7.14 168.769 7.74V13.185C168.769 13.275 168.739 13.35 168.679 13.41C168.619 13.47 168.544 13.5 168.454 13.5H167.434C167.344 13.5 167.269 13.475 167.209 13.425C167.149 13.365 167.119 13.285 167.119 13.185V12.6C166.429 13.33 165.609 13.695 164.659 13.695ZM164.794 12.09C165.184 12.09 165.554 11.99 165.904 11.79C166.254 11.59 166.534 11.33 166.744 11.01C166.964 10.68 167.074 10.335 167.074 9.975V9.675L165.949 9.84C165.339 9.91 164.944 9.965 164.764 10.005C163.944 10.155 163.534 10.51 163.534 11.07C163.534 11.38 163.649 11.63 163.879 11.82C164.109 12 164.414 12.09 164.794 12.09ZM170.753 13.5C170.663 13.5 170.588 13.47 170.528 13.41C170.468 13.35 170.438 13.275 170.438 13.185V12.075C170.438 11.985 170.468 11.91 170.528 11.85C170.588 11.79 170.663 11.76 170.753 11.76H171.893V6.6H170.603C170.513 6.6 170.438 6.57 170.378 6.51C170.318 6.45 170.288 6.375 170.288 6.285V5.22C170.288 5.13 170.318 5.055 170.378 4.995C170.438 4.935 170.513 4.905 170.603 4.905H172.928C173.108 4.905 173.258 4.97 173.378 5.1C173.508 5.22 173.573 5.37 173.573 5.55V6.09L174.383 5.445C174.683 5.205 174.943 5.04 175.163 4.95C175.383 4.85 175.643 4.8 175.943 4.8H176.408C176.498 4.8 176.573 4.83 176.633 4.89C176.693 4.95 176.723 5.025 176.723 5.115V6.27C176.723 6.36 176.693 6.435 176.633 6.495C176.573 6.555 176.498 6.585 176.408 6.585H176.018C175.758 6.585 175.533 6.63 175.343 6.72C175.153 6.81 174.863 7.01 174.473 7.32L173.648 7.98V11.76H175.133C175.223 11.76 175.298 11.79 175.358 11.85C175.418 11.91 175.448 11.985 175.448 12.075V13.185C175.448 13.275 175.418 13.35 175.358 13.41C175.298 13.47 175.223 13.5 175.133 13.5H170.753Z" fill="white"/>
<path d="M210.334 14.2665C210.112 14.2665 209.921 14.1944 209.762 14.0501C209.614 13.8938 209.54 13.7074 209.54 13.491V2.54309H207.861C207.751 2.54309 207.659 2.50701 207.585 2.43487C207.511 2.36272 207.474 2.27254 207.474 2.16433V0.829658C207.474 0.721443 207.511 0.631262 207.585 0.559117C207.659 0.486973 207.751 0.450901 207.861 0.450901H210.961C211.182 0.450901 211.367 0.529058 211.514 0.685371C211.674 0.829659 211.754 1.01002 211.754 1.22645V12.1743H213.433C213.544 12.1743 213.636 12.2104 213.71 12.2826C213.783 12.3547 213.82 12.4449 213.82 12.5531V13.8878C213.82 13.996 213.783 14.0862 213.71 14.1583C213.636 14.2305 213.544 14.2665 213.433 14.2665H210.334Z" fill="white"/>
<path d="M219.666 14.501C218.867 14.501 218.129 14.3146 217.452 13.9419C216.788 13.5571 216.259 13.0401 215.866 12.3908C215.472 11.7415 215.276 11.0381 215.276 10.2806V7.91784C215.276 7.16032 215.472 6.45691 215.866 5.80761C216.259 5.15832 216.788 4.64729 217.452 4.27455C218.129 3.88978 218.867 3.69739 219.666 3.69739C220.466 3.69739 221.197 3.88978 221.862 4.27455C222.538 4.64729 223.073 5.15832 223.467 5.80761C223.86 6.45691 224.057 7.16032 224.057 7.91784V10.2806C224.057 11.0381 223.86 11.7415 223.467 12.3908C223.073 13.0401 222.538 13.5571 221.862 13.9419C221.197 14.3146 220.466 14.501 219.666 14.501ZM219.666 12.4088C220.269 12.4088 220.779 12.2044 221.197 11.7956C221.628 11.3747 221.843 10.8697 221.843 10.2806V7.91784C221.843 7.32866 221.628 6.82966 221.197 6.42084C220.779 6 220.269 5.78958 219.666 5.78958C219.064 5.78958 218.547 6 218.117 6.42084C217.698 6.82966 217.489 7.32866 217.489 7.91784V10.2806C217.489 10.8697 217.698 11.3747 218.117 11.7956C218.547 12.2044 219.064 12.4088 219.666 12.4088Z" fill="white"/>
<path d="M230.199 18C228.969 18 227.985 17.7836 227.247 17.3507C226.521 16.9299 226.158 16.2685 226.158 15.3667C226.158 14.7054 226.392 14.1343 226.859 13.6533C226.417 13.3046 226.195 12.8236 226.195 12.2104C226.195 11.8016 226.294 11.4168 226.491 11.0561C226.7 10.6834 226.982 10.3647 227.339 10.1002C226.946 9.77555 226.638 9.38477 226.417 8.92786C226.208 8.45892 226.103 7.9479 226.103 7.39479C226.103 6.66132 226.281 6.01202 226.638 5.44689C227.007 4.88176 227.499 4.4489 228.114 4.1483C228.741 3.83567 229.43 3.67936 230.18 3.67936C230.721 3.67936 231.238 3.76353 231.73 3.93186H235.364C235.475 3.93186 235.567 3.96794 235.641 4.04008C235.715 4.11222 235.752 4.2024 235.752 4.31062V5.501C235.752 5.60922 235.715 5.6994 235.641 5.77154C235.567 5.84369 235.475 5.87976 235.364 5.87976H233.925C234.134 6.3487 234.239 6.85371 234.239 7.39479C234.239 8.11623 234.054 8.75952 233.685 9.32465C233.329 9.87776 232.843 10.3106 232.228 10.6232C231.613 10.9238 230.93 11.0741 230.18 11.0741C229.614 11.0741 229.055 10.978 228.501 10.7856C228.243 11.0381 228.114 11.3026 228.114 11.5792C228.114 11.8196 228.206 11.988 228.391 12.0842C228.575 12.1683 228.846 12.2224 229.202 12.2465C229.694 12.2705 230.192 12.2826 230.697 12.2826L231.527 12.3006C232.56 12.3246 233.396 12.505 234.036 12.8417C234.688 13.1784 235.014 13.8156 235.014 14.7535C235.014 15.8357 234.565 16.6473 233.667 17.1884C232.781 17.7295 231.625 18 230.199 18ZM230.18 9.18036C230.758 9.18036 231.213 9.01804 231.545 8.69339C231.877 8.36874 232.043 7.93587 232.043 7.39479C232.043 6.85371 231.877 6.41483 231.545 6.07816C231.213 5.74148 230.758 5.57315 230.18 5.57315C229.602 5.57315 229.141 5.74148 228.797 6.07816C228.464 6.41483 228.298 6.85371 228.298 7.39479C228.298 7.93587 228.464 8.36874 228.797 8.69339C229.141 9.01804 229.602 9.18036 230.18 9.18036ZM230.365 16.1423C231.964 16.1423 232.763 15.7695 232.763 15.024C232.763 14.7114 232.64 14.507 232.394 14.4108C232.16 14.3146 231.828 14.2665 231.398 14.2665H229.59C229.135 14.2665 228.76 14.2485 228.464 14.2124C228.329 14.4289 228.262 14.6814 228.262 14.9699C228.262 15.4269 228.44 15.7335 228.797 15.8898C229.166 16.0581 229.688 16.1423 230.365 16.1423Z" fill="white"/>
<path d="M239.447 2.72345C239.336 2.72345 239.244 2.68737 239.17 2.61523C239.096 2.54309 239.059 2.45291 239.059 2.34469V0.378757C239.059 0.27054 239.096 0.18036 239.17 0.108216C239.244 0.036072 239.336 0 239.447 0H240.701C240.812 0 240.904 0.036072 240.978 0.108216C241.052 0.18036 241.089 0.27054 241.089 0.378757V2.34469C241.089 2.45291 241.052 2.54309 240.978 2.61523C240.904 2.68737 240.812 2.72345 240.701 2.72345H239.447ZM239.89 14.2665C239.631 14.2665 239.41 14.1824 239.226 14.014C239.053 13.8337 238.967 13.6172 238.967 13.3647V5.98798H237.473C237.362 5.98798 237.27 5.9519 237.196 5.87976C237.122 5.80761 237.085 5.71743 237.085 5.60922V4.31062C237.085 4.2024 237.122 4.11222 237.196 4.04008C237.27 3.96794 237.362 3.93186 237.473 3.93186H240.259C240.517 3.93186 240.732 4.02204 240.904 4.2024C241.089 4.37074 241.181 4.58116 241.181 4.83367V12.2104H242.675C242.786 12.2104 242.878 12.2465 242.952 12.3186C243.026 12.3908 243.063 12.481 243.063 12.5892V13.8878C243.063 13.996 243.026 14.0862 242.952 14.1583C242.878 14.2305 242.786 14.2665 242.675 14.2665H239.89Z" fill="white"/>
<path d="M244.861 14.2665C244.75 14.2665 244.658 14.2305 244.584 14.1583C244.511 14.0862 244.474 13.996 244.474 13.8878V12.6072C244.474 12.499 244.511 12.4088 244.584 12.3367C244.658 12.2645 244.75 12.2285 244.861 12.2285H246.946V4.2024H245.396C245.249 4.2024 245.119 4.15431 245.009 4.05812C244.91 3.9499 244.861 3.82365 244.861 3.67936V2.81363L247.85 1.2986H248.569C248.717 1.2986 248.84 1.3527 248.938 1.46092C249.049 1.55711 249.104 1.67735 249.104 1.82164V12.2285H251.189C251.3 12.2285 251.392 12.2645 251.466 12.3367C251.539 12.4088 251.576 12.499 251.576 12.6072V13.8878C251.576 13.996 251.539 14.0862 251.466 14.1583C251.392 14.2305 251.3 14.2665 251.189 14.2665H244.861Z" fill="white"/>
<path d="M254.115 14.2665C253.893 14.2665 253.703 14.1944 253.543 14.0501C253.395 13.8938 253.321 13.7134 253.321 13.509V12.0661C253.321 11.1162 253.45 10.3707 253.709 9.82966C253.967 9.27655 254.367 8.8016 254.908 8.40481C255.449 8.00802 256.359 7.44289 257.638 6.70942C258.081 6.45691 258.401 6.18036 258.598 5.87976C258.807 5.56713 258.911 5.22445 258.911 4.8517C258.911 4.34669 258.739 3.94389 258.395 3.64329C258.063 3.34268 257.595 3.19238 256.993 3.19238C256.255 3.19238 255.486 3.42084 254.687 3.87775C254.613 3.91383 254.533 3.93186 254.447 3.93186C254.299 3.93186 254.188 3.86573 254.115 3.73347L253.506 2.6513C253.469 2.59118 253.45 2.53106 253.45 2.47094C253.45 2.33868 253.506 2.23647 253.617 2.16433C254.108 1.83968 254.662 1.58717 255.277 1.40681C255.904 1.22645 256.544 1.13627 257.196 1.13627C258.425 1.13627 259.385 1.46092 260.073 2.11022C260.774 2.75952 261.125 3.6493 261.125 4.77956C261.125 5.60922 260.916 6.31263 260.498 6.88978C260.08 7.45491 259.391 8.03808 258.432 8.63928C258.136 8.81964 257.89 8.96393 257.694 9.07214C257.165 9.38477 256.759 9.6493 256.476 9.86573C256.193 10.0701 255.959 10.3226 255.775 10.6232C255.59 10.9118 255.498 11.2545 255.498 11.6513V12.1743H260.295C260.406 12.1743 260.498 12.2104 260.572 12.2826C260.645 12.3547 260.682 12.4449 260.682 12.5531V13.8878C260.682 13.996 260.645 14.0862 260.572 14.1583C260.498 14.2305 260.406 14.2665 260.295 14.2665H254.115Z" fill="white"/>
<path fill-rule="evenodd" clip-rule="evenodd" d="M188.912 10.1136L188.09 9.31034C187.97 9.19295 187.97 9.00262 188.09 8.88522L189.286 7.71616C189.406 7.59877 189.601 7.59877 189.721 7.71616L190.542 8.51946C193.623 11.5312 198.197 10.6991 201.943 9.01804H199.792C199.622 9.01804 199.484 8.88345 199.484 8.71743V7.06413C199.484 6.89811 199.622 6.76353 199.792 6.76353H206.462C206.632 6.76353 206.769 6.89811 206.769 7.06413V14.0121C206.769 14.1781 206.632 14.3127 206.462 14.3127H204.771C204.601 14.3127 204.463 14.1781 204.463 14.0121V10.7833C204.463 10.5451 204.193 10.4005 203.984 10.5237C199.214 13.3407 192.994 14.105 188.912 10.1136Z" fill="white"/>
</svg>
