<svg width="271" height="15" viewBox="0 0 271 15" fill="none" xmlns="http://www.w3.org/2000/svg">
<path d="M3.01703 12C2.83703 12 2.68203 11.94 2.55203 11.82C2.43203 11.69 2.37203 11.535 2.37203 11.355V2.25H1.00703C0.917025 2.25 0.842025 2.22 0.782025 2.16C0.722025 2.1 0.692025 2.025 0.692025 1.935V0.824999C0.692025 0.735 0.722025 0.66 0.782025 0.599999C0.842025 0.539999 0.917025 0.51 1.00703 0.51H3.52703C3.70703 0.51 3.85703 0.575 3.97703 0.705C4.10703 0.824999 4.17203 0.974999 4.17203 1.155V10.26H5.53703C5.62703 10.26 5.70203 10.29 5.76203 10.35C5.82203 10.41 5.85203 10.485 5.85203 10.575V11.685C5.85203 11.775 5.82203 11.85 5.76203 11.91C5.70203 11.97 5.62703 12 5.53703 12H3.01703ZM10.4553 12C9.80527 12 9.20527 11.84 8.65527 11.52C8.11527 11.2 7.68527 10.765 7.36527 10.215C7.04527 9.665 6.88527 9.065 6.88527 8.415V6.795C6.88527 6.145 7.04527 5.545 7.36527 4.995C7.68527 4.445 8.11527 4.01 8.65527 3.69C9.20527 3.37 9.80527 3.21 10.4553 3.21C11.1053 3.21 11.7003 3.37 12.2403 3.69C12.7903 4.01 13.2253 4.445 13.5453 4.995C13.8653 5.545 14.0253 6.145 14.0253 6.795V7.8C14.0253 7.98 13.9603 8.135 13.8303 8.265C13.7103 8.385 13.5603 8.445 13.3803 8.445H8.68527V8.52C8.68527 9.01 8.85527 9.43 9.19527 9.78C9.54527 10.12 9.96527 10.29 10.4553 10.29H12.8403C12.9303 10.29 13.0053 10.32 13.0653 10.38C13.1253 10.44 13.1553 10.515 13.1553 10.605V11.685C13.1553 11.775 13.1253 11.85 13.0653 11.91C13.0053 11.97 12.9303 12 12.8403 12H10.4553ZM12.2253 6.825V6.69C12.2253 6.2 12.0503 5.785 11.7003 5.445C11.3603 5.095 10.9453 4.92 10.4553 4.92C9.96527 4.92 9.54527 5.095 9.19527 5.445C8.85527 5.785 8.68527 6.2 8.68527 6.69V6.825H12.2253ZM18.3014 12.195C17.7614 12.195 17.2414 12.11 16.7414 11.94C16.2414 11.77 15.7964 11.535 15.4064 11.235C15.3564 11.195 15.3214 11.145 15.3014 11.085C15.2914 11.015 15.2964 10.95 15.3164 10.89C15.3864 10.73 15.5564 10.415 15.8264 9.945C15.9064 9.825 16.0064 9.765 16.1264 9.765C16.1964 9.765 16.2664 9.785 16.3364 9.825C16.6964 10.075 17.0314 10.26 17.3414 10.38C17.6614 10.49 17.9964 10.545 18.3464 10.545C18.7664 10.545 19.0864 10.47 19.3064 10.32C19.5264 10.16 19.6364 9.945 19.6364 9.675C19.6364 9.445 19.5414 9.265 19.3514 9.135C19.1614 9.005 18.8014 8.84 18.2714 8.64L17.7314 8.43C17.2914 8.26 16.9164 8.08 16.6064 7.89C16.2964 7.69 16.0314 7.42 15.8114 7.08C15.6014 6.74 15.4964 6.315 15.4964 5.805C15.4964 5.015 15.7564 4.39 16.2764 3.93C16.8064 3.46 17.5064 3.225 18.3764 3.225C18.8864 3.225 19.3864 3.31 19.8764 3.48C20.3664 3.64 20.7964 3.865 21.1664 4.155C21.2164 4.195 21.2464 4.25 21.2564 4.32C21.2764 4.38 21.2764 4.44 21.2564 4.5C21.1664 4.71 21.0164 5.025 20.8064 5.445C20.7464 5.555 20.6514 5.61 20.5214 5.61C20.4514 5.61 20.3814 5.59 20.3114 5.55C19.6214 5.1 18.9814 4.875 18.3914 4.875C18.0514 4.875 17.7814 4.95 17.5814 5.1C17.3914 5.24 17.2964 5.44 17.2964 5.7C17.2964 5.96 17.4064 6.18 17.6264 6.36C17.8464 6.53 18.2514 6.73 18.8414 6.96C19.4114 7.18 19.8514 7.37 20.1614 7.53C20.4814 7.68 20.7714 7.925 21.0314 8.265C21.3014 8.595 21.4364 9.025 21.4364 9.555C21.4364 10.075 21.3014 10.535 21.0314 10.935C20.7714 11.335 20.4014 11.645 19.9214 11.865C19.4514 12.085 18.9114 12.195 18.3014 12.195ZM29.7014 12.195C29.1214 12.195 28.5764 12.04 28.0664 11.73C27.5564 11.41 27.1464 10.985 26.8364 10.455C26.5364 9.925 26.3864 9.355 26.3864 8.745V6.66C26.3864 6.05 26.5364 5.48 26.8364 4.95C27.1364 4.42 27.5414 4 28.0514 3.69C28.5614 3.37 29.1164 3.21 29.7164 3.21C30.0964 3.21 30.4614 3.27 30.8114 3.39C31.1714 3.51 31.4814 3.68 31.7414 3.9V0.824999C31.7414 0.735 31.7714 0.66 31.8314 0.599999C31.8914 0.539999 31.9664 0.51 32.0564 0.51H33.2264C33.3164 0.51 33.3914 0.539999 33.4514 0.599999C33.5114 0.66 33.5414 0.735 33.5414 0.824999V11.685C33.5414 11.775 33.5114 11.85 33.4514 11.91C33.3914 11.97 33.3164 12 33.2264 12H32.2514C32.1614 12 32.0864 11.97 32.0264 11.91C31.9664 11.85 31.9364 11.775 31.9364 11.685V10.965C31.6664 11.375 31.3414 11.685 30.9614 11.895C30.5814 12.095 30.1614 12.195 29.7014 12.195ZM29.9564 10.47C30.4464 10.47 30.8664 10.3 31.2164 9.96C31.5664 9.61 31.7414 9.19 31.7414 8.7V6.705C31.7414 6.215 31.5664 5.8 31.2164 5.46C30.8664 5.11 30.4464 4.935 29.9564 4.935C29.4664 4.935 29.0464 5.11 28.6964 5.46C28.3564 5.8 28.1864 6.215 28.1864 6.705V8.7C28.1864 9.19 28.3564 9.61 28.6964 9.96C29.0464 10.3 29.4664 10.47 29.9564 10.47ZM39.1082 12C38.4582 12 37.8582 11.84 37.3082 11.52C36.7682 11.2 36.3382 10.765 36.0182 10.215C35.6982 9.665 35.5382 9.065 35.5382 8.415V6.795C35.5382 6.145 35.6982 5.545 36.0182 4.995C36.3382 4.445 36.7682 4.01 37.3082 3.69C37.8582 3.37 38.4582 3.21 39.1082 3.21C39.7582 3.21 40.3532 3.37 40.8932 3.69C41.4432 4.01 41.8782 4.445 42.1982 4.995C42.5182 5.545 42.6782 6.145 42.6782 6.795V7.8C42.6782 7.98 42.6132 8.135 42.4832 8.265C42.3632 8.385 42.2132 8.445 42.0332 8.445H37.3382V8.52C37.3382 9.01 37.5082 9.43 37.8482 9.78C38.1982 10.12 38.6182 10.29 39.1082 10.29H41.4932C41.5832 10.29 41.6582 10.32 41.7182 10.38C41.7782 10.44 41.8082 10.515 41.8082 10.605V11.685C41.8082 11.775 41.7782 11.85 41.7182 11.91C41.6582 11.97 41.5832 12 41.4932 12H39.1082ZM40.8782 6.825V6.69C40.8782 6.2 40.7032 5.785 40.3532 5.445C40.0132 5.095 39.5982 4.92 39.1082 4.92C38.6182 4.92 38.1982 5.095 37.8482 5.445C37.5082 5.785 37.3382 6.2 37.3382 6.69V6.825H40.8782ZM38.7482 2.46C38.6682 2.46 38.6032 2.43 38.5532 2.37C38.5132 2.31 38.5132 2.24 38.5532 2.16L39.2282 0.705C39.2482 0.644999 39.2882 0.599999 39.3482 0.57C39.4082 0.53 39.4682 0.51 39.5282 0.51H41.1482C41.2182 0.51 41.2732 0.534999 41.3132 0.584999C41.3532 0.625 41.3732 0.674999 41.3732 0.734999C41.3732 0.794999 41.3482 0.849999 41.2982 0.9L39.7532 2.34C39.6732 2.42 39.5682 2.46 39.4382 2.46H38.7482ZM46.9809 12.09C46.7509 12.09 46.5959 11.985 46.5159 11.775L43.7409 3.885C43.7209 3.825 43.7109 3.78 43.7109 3.75C43.7109 3.65 43.7459 3.57 43.8159 3.51C43.8859 3.44 43.9759 3.405 44.0859 3.405H45.1359C45.2359 3.405 45.3259 3.435 45.4059 3.495C45.4959 3.555 45.5559 3.635 45.5859 3.735L47.6109 9.765L49.6359 3.735C49.6659 3.635 49.7209 3.555 49.8009 3.495C49.8909 3.435 49.9859 3.405 50.0859 3.405H51.0609C51.1709 3.405 51.2609 3.44 51.3309 3.51C51.4009 3.57 51.4359 3.65 51.4359 3.75C51.4359 3.78 51.4259 3.825 51.4059 3.885L48.6309 11.775C48.5909 11.875 48.5259 11.955 48.4359 12.015C48.3559 12.075 48.2659 12.105 48.1659 12.105L46.9809 12.09ZM55.9762 12C55.3262 12 54.7262 11.84 54.1762 11.52C53.6362 11.2 53.2062 10.765 52.8862 10.215C52.5662 9.665 52.4062 9.065 52.4062 8.415V6.795C52.4062 6.145 52.5662 5.545 52.8862 4.995C53.2062 4.445 53.6362 4.01 54.1762 3.69C54.7262 3.37 55.3262 3.21 55.9762 3.21C56.6262 3.21 57.2212 3.37 57.7612 3.69C58.3112 4.01 58.7462 4.445 59.0662 4.995C59.3862 5.545 59.5462 6.145 59.5462 6.795V7.8C59.5462 7.98 59.4812 8.135 59.3512 8.265C59.2312 8.385 59.0812 8.445 58.9012 8.445H54.2062V8.52C54.2062 9.01 54.3762 9.43 54.7162 9.78C55.0662 10.12 55.4862 10.29 55.9762 10.29H58.3612C58.4512 10.29 58.5262 10.32 58.5862 10.38C58.6462 10.44 58.6762 10.515 58.6762 10.605V11.685C58.6762 11.775 58.6462 11.85 58.5862 11.91C58.5262 11.97 58.4512 12 58.3612 12H55.9762ZM57.7462 6.825V6.69C57.7462 6.2 57.5712 5.785 57.2212 5.445C56.8812 5.095 56.4662 4.92 55.9762 4.92C55.4862 4.92 55.0662 5.095 54.7162 5.445C54.3762 5.785 54.2062 6.2 54.2062 6.69V6.825H57.7462ZM62.4176 12C62.2376 12 62.0826 11.94 61.9526 11.82C61.8326 11.69 61.7726 11.535 61.7726 11.355V2.25H60.4076C60.3176 2.25 60.2426 2.22 60.1826 2.16C60.1226 2.1 60.0926 2.025 60.0926 1.935V0.824999C60.0926 0.735 60.1226 0.66 60.1826 0.599999C60.2426 0.539999 60.3176 0.51 60.4076 0.51H62.9276C63.1076 0.51 63.2576 0.575 63.3776 0.705C63.5076 0.824999 63.5726 0.974999 63.5726 1.155V10.26H64.9376C65.0276 10.26 65.1026 10.29 65.1626 10.35C65.2226 10.41 65.2526 10.485 65.2526 10.575V11.685C65.2526 11.775 65.2226 11.85 65.1626 11.91C65.1026 11.97 65.0276 12 64.9376 12H62.4176ZM69.8559 12.195C69.2059 12.195 68.6059 12.04 68.0559 11.73C67.5159 11.41 67.0859 10.98 66.7659 10.44C66.4459 9.9 66.2859 9.315 66.2859 8.685V6.72C66.2859 6.09 66.4459 5.505 66.7659 4.965C67.0859 4.425 67.5159 4 68.0559 3.69C68.6059 3.37 69.2059 3.21 69.8559 3.21C70.5059 3.21 71.1009 3.37 71.6409 3.69C72.1909 4 72.6259 4.425 72.9459 4.965C73.2659 5.505 73.4259 6.09 73.4259 6.72V8.685C73.4259 9.315 73.2659 9.9 72.9459 10.44C72.6259 10.98 72.1909 11.41 71.6409 11.73C71.1009 12.04 70.5059 12.195 69.8559 12.195ZM69.8559 10.455C70.3459 10.455 70.7609 10.285 71.1009 9.945C71.4509 9.595 71.6259 9.175 71.6259 8.685V6.72C71.6259 6.23 71.4509 5.815 71.1009 5.475C70.7609 5.125 70.3459 4.95 69.8559 4.95C69.3659 4.95 68.9459 5.125 68.5959 5.475C68.2559 5.815 68.0859 6.23 68.0859 6.72V8.685C68.0859 9.175 68.2559 9.595 68.5959 9.945C68.9459 10.285 69.3659 10.455 69.8559 10.455ZM75.6428 14.895C75.5528 14.895 75.4778 14.865 75.4178 14.805C75.3578 14.745 75.3278 14.67 75.3278 14.58V3.72C75.3278 3.63 75.3578 3.555 75.4178 3.495C75.4778 3.435 75.5528 3.405 75.6428 3.405H76.6178C76.7078 3.405 76.7828 3.435 76.8428 3.495C76.9028 3.555 76.9328 3.63 76.9328 3.72V4.395C77.1928 4.005 77.5128 3.71 77.8928 3.51C78.2828 3.31 78.6978 3.21 79.1378 3.21C79.7278 3.21 80.2778 3.37 80.7878 3.69C81.3078 4 81.7178 4.42 82.0178 4.95C82.3278 5.48 82.4828 6.05 82.4828 6.66V8.745C82.4828 9.355 82.3328 9.925 82.0328 10.455C81.7328 10.985 81.3278 11.41 80.8178 11.73C80.3078 12.04 79.7478 12.195 79.1378 12.195C78.7678 12.195 78.4078 12.12 78.0578 11.97C77.7178 11.81 77.4078 11.585 77.1278 11.295V14.58C77.1278 14.67 77.0978 14.745 77.0378 14.805C76.9778 14.865 76.9028 14.895 76.8128 14.895H75.6428ZM78.9128 10.47C79.4028 10.47 79.8178 10.3 80.1578 9.96C80.5078 9.61 80.6828 9.19 80.6828 8.7V6.705C80.6828 6.215 80.5078 5.8 80.1578 5.46C79.8178 5.11 79.4028 4.935 78.9128 4.935C78.4228 4.935 78.0028 5.11 77.6528 5.46C77.3028 5.8 77.1278 6.215 77.1278 6.705V8.7C77.1278 9.19 77.3028 9.61 77.6528 9.96C78.0028 10.3 78.4228 10.47 78.9128 10.47ZM84.7067 14.895C84.6167 14.895 84.5417 14.865 84.4817 14.805C84.4217 14.745 84.3917 14.67 84.3917 14.58V3.72C84.3917 3.63 84.4217 3.555 84.4817 3.495C84.5417 3.435 84.6167 3.405 84.7067 3.405H85.6817C85.7717 3.405 85.8467 3.435 85.9067 3.495C85.9667 3.555 85.9967 3.63 85.9967 3.72V4.395C86.2567 4.005 86.5767 3.71 86.9567 3.51C87.3467 3.31 87.7617 3.21 88.2017 3.21C88.7917 3.21 89.3417 3.37 89.8517 3.69C90.3717 4 90.7817 4.42 91.0817 4.95C91.3917 5.48 91.5467 6.05 91.5467 6.66V8.745C91.5467 9.355 91.3967 9.925 91.0967 10.455C90.7967 10.985 90.3917 11.41 89.8817 11.73C89.3717 12.04 88.8117 12.195 88.2017 12.195C87.8317 12.195 87.4717 12.12 87.1217 11.97C86.7817 11.81 86.4717 11.585 86.1917 11.295V14.58C86.1917 14.67 86.1617 14.745 86.1017 14.805C86.0417 14.865 85.9667 14.895 85.8767 14.895H84.7067ZM87.9767 10.47C88.4667 10.47 88.8817 10.3 89.2217 9.96C89.5717 9.61 89.7467 9.19 89.7467 8.7V6.705C89.7467 6.215 89.5717 5.8 89.2217 5.46C88.8817 5.11 88.4667 4.935 87.9767 4.935C87.4867 4.935 87.0667 5.11 86.7167 5.46C86.3667 5.8 86.1917 6.215 86.1917 6.705V8.7C86.1917 9.19 86.3667 9.61 86.7167 9.96C87.0667 10.3 87.4867 10.47 87.9767 10.47ZM96.7838 12C96.1338 12 95.5338 11.84 94.9838 11.52C94.4438 11.2 94.0138 10.765 93.6938 10.215C93.3738 9.665 93.2138 9.065 93.2138 8.415V6.795C93.2138 6.145 93.3738 5.545 93.6938 4.995C94.0138 4.445 94.4438 4.01 94.9838 3.69C95.5338 3.37 96.1338 3.21 96.7838 3.21C97.4338 3.21 98.0288 3.37 98.5688 3.69C99.1188 4.01 99.5538 4.445 99.8738 4.995C100.194 5.545 100.354 6.145 100.354 6.795V7.8C100.354 7.98 100.289 8.135 100.159 8.265C100.039 8.385 99.8888 8.445 99.7088 8.445H95.0138V8.52C95.0138 9.01 95.1838 9.43 95.5238 9.78C95.8738 10.12 96.2938 10.29 96.7838 10.29H99.1688C99.2588 10.29 99.3338 10.32 99.3938 10.38C99.4538 10.44 99.4838 10.515 99.4838 10.605V11.685C99.4838 11.775 99.4538 11.85 99.3938 11.91C99.3338 11.97 99.2588 12 99.1688 12H96.7838ZM98.5538 6.825V6.69C98.5538 6.2 98.3788 5.785 98.0288 5.445C97.6888 5.095 97.2738 4.92 96.7838 4.92C96.2938 4.92 95.8738 5.095 95.5238 5.445C95.1838 5.785 95.0138 6.2 95.0138 6.69V6.825H98.5538ZM105.12 12.195C104.55 12.195 104.035 12.06 103.575 11.79C103.125 11.52 102.77 11.145 102.51 10.665C102.25 10.185 102.12 9.645 102.12 9.045V3.72C102.12 3.63 102.15 3.555 102.21 3.495C102.27 3.435 102.345 3.405 102.435 3.405H103.605C103.695 3.405 103.77 3.435 103.83 3.495C103.89 3.555 103.92 3.63 103.92 3.72V8.82C103.92 9.35 104.055 9.76 104.325 10.05C104.595 10.33 104.975 10.47 105.465 10.47C106.055 10.47 106.52 10.28 106.86 9.9C107.21 9.51 107.385 8.98 107.385 8.31V3.72C107.385 3.63 107.415 3.555 107.475 3.495C107.535 3.435 107.61 3.405 107.7 3.405H108.87C108.96 3.405 109.035 3.435 109.095 3.495C109.155 3.555 109.185 3.63 109.185 3.72V11.685C109.185 11.775 109.155 11.85 109.095 11.91C109.035 11.97 108.96 12 108.87 12H107.7C107.61 12 107.535 11.97 107.475 11.91C107.415 11.85 107.385 11.775 107.385 11.685V10.98C107.105 11.36 106.77 11.66 106.38 11.88C106 12.09 105.58 12.195 105.12 12.195ZM111.377 12C111.287 12 111.212 11.97 111.152 11.91C111.092 11.85 111.062 11.775 111.062 11.685V10.575C111.062 10.485 111.092 10.41 111.152 10.35C111.212 10.29 111.287 10.26 111.377 10.26H112.517V5.1H111.227C111.137 5.1 111.062 5.07 111.002 5.01C110.942 4.95 110.912 4.875 110.912 4.785V3.72C110.912 3.63 110.942 3.555 111.002 3.495C111.062 3.435 111.137 3.405 111.227 3.405H113.552C113.732 3.405 113.882 3.47 114.002 3.6C114.132 3.72 114.197 3.87 114.197 4.05V4.59L115.007 3.945C115.307 3.705 115.567 3.54 115.787 3.45C116.007 3.35 116.267 3.3 116.567 3.3H117.032C117.122 3.3 117.197 3.33 117.257 3.39C117.317 3.45 117.347 3.525 117.347 3.615V4.77C117.347 4.86 117.317 4.935 117.257 4.995C117.197 5.055 117.122 5.085 117.032 5.085H116.642C116.382 5.085 116.157 5.13 115.967 5.22C115.777 5.31 115.487 5.51 115.097 5.82L114.272 6.48V10.26H115.757C115.847 10.26 115.922 10.29 115.982 10.35C116.042 10.41 116.072 10.485 116.072 10.575V11.685C116.072 11.775 116.042 11.85 115.982 11.91C115.922 11.97 115.847 12 115.757 12H111.377ZM121.249 12.195C120.709 12.195 120.189 12.11 119.689 11.94C119.189 11.77 118.744 11.535 118.354 11.235C118.304 11.195 118.269 11.145 118.249 11.085C118.239 11.015 118.244 10.95 118.264 10.89C118.334 10.73 118.504 10.415 118.774 9.945C118.854 9.825 118.954 9.765 119.074 9.765C119.144 9.765 119.214 9.785 119.284 9.825C119.644 10.075 119.979 10.26 120.289 10.38C120.609 10.49 120.944 10.545 121.294 10.545C121.714 10.545 122.034 10.47 122.254 10.32C122.474 10.16 122.584 9.945 122.584 9.675C122.584 9.445 122.489 9.265 122.299 9.135C122.109 9.005 121.749 8.84 121.219 8.64L120.679 8.43C120.239 8.26 119.864 8.08 119.554 7.89C119.244 7.69 118.979 7.42 118.759 7.08C118.549 6.74 118.444 6.315 118.444 5.805C118.444 5.015 118.704 4.39 119.224 3.93C119.754 3.46 120.454 3.225 121.324 3.225C121.834 3.225 122.334 3.31 122.824 3.48C123.314 3.64 123.744 3.865 124.114 4.155C124.164 4.195 124.194 4.25 124.204 4.32C124.224 4.38 124.224 4.44 124.204 4.5C124.114 4.71 123.964 5.025 123.754 5.445C123.694 5.555 123.599 5.61 123.469 5.61C123.399 5.61 123.329 5.59 123.259 5.55C122.569 5.1 121.929 4.875 121.339 4.875C120.999 4.875 120.729 4.95 120.529 5.1C120.339 5.24 120.244 5.44 120.244 5.7C120.244 5.96 120.354 6.18 120.574 6.36C120.794 6.53 121.199 6.73 121.789 6.96C122.359 7.18 122.799 7.37 123.109 7.53C123.429 7.68 123.719 7.925 123.979 8.265C124.249 8.595 124.384 9.025 124.384 9.555C124.384 10.075 124.249 10.535 123.979 10.935C123.719 11.335 123.349 11.645 122.869 11.865C122.399 12.085 121.859 12.195 121.249 12.195ZM132.649 12.195C132.069 12.195 131.524 12.04 131.014 11.73C130.504 11.41 130.094 10.985 129.784 10.455C129.484 9.925 129.334 9.355 129.334 8.745V6.66C129.334 6.05 129.484 5.48 129.784 4.95C130.084 4.42 130.489 4 130.999 3.69C131.509 3.37 132.064 3.21 132.664 3.21C133.044 3.21 133.409 3.27 133.759 3.39C134.119 3.51 134.429 3.68 134.689 3.9V0.824999C134.689 0.735 134.719 0.66 134.779 0.599999C134.839 0.539999 134.914 0.51 135.004 0.51H136.174C136.264 0.51 136.339 0.539999 136.399 0.599999C136.459 0.66 136.489 0.735 136.489 0.824999V11.685C136.489 11.775 136.459 11.85 136.399 11.91C136.339 11.97 136.264 12 136.174 12H135.199C135.109 12 135.034 11.97 134.974 11.91C134.914 11.85 134.884 11.775 134.884 11.685V10.965C134.614 11.375 134.289 11.685 133.909 11.895C133.529 12.095 133.109 12.195 132.649 12.195ZM132.904 10.47C133.394 10.47 133.814 10.3 134.164 9.96C134.514 9.61 134.689 9.19 134.689 8.7V6.705C134.689 6.215 134.514 5.8 134.164 5.46C133.814 5.11 133.394 4.935 132.904 4.935C132.414 4.935 131.994 5.11 131.644 5.46C131.304 5.8 131.134 6.215 131.134 6.705V8.7C131.134 9.19 131.304 9.61 131.644 9.96C131.994 10.3 132.414 10.47 132.904 10.47ZM142.056 12C141.406 12 140.806 11.84 140.256 11.52C139.716 11.2 139.286 10.765 138.966 10.215C138.646 9.665 138.486 9.065 138.486 8.415V6.795C138.486 6.145 138.646 5.545 138.966 4.995C139.286 4.445 139.716 4.01 140.256 3.69C140.806 3.37 141.406 3.21 142.056 3.21C142.706 3.21 143.301 3.37 143.841 3.69C144.391 4.01 144.826 4.445 145.146 4.995C145.466 5.545 145.626 6.145 145.626 6.795V7.8C145.626 7.98 145.561 8.135 145.431 8.265C145.311 8.385 145.161 8.445 144.981 8.445H140.286V8.52C140.286 9.01 140.456 9.43 140.796 9.78C141.146 10.12 141.566 10.29 142.056 10.29H144.441C144.531 10.29 144.606 10.32 144.666 10.38C144.726 10.44 144.756 10.515 144.756 10.605V11.685C144.756 11.775 144.726 11.85 144.666 11.91C144.606 11.97 144.531 12 144.441 12H142.056ZM143.826 6.825V6.69C143.826 6.2 143.651 5.785 143.301 5.445C142.961 5.095 142.546 4.92 142.056 4.92C141.566 4.92 141.146 5.095 140.796 5.445C140.456 5.785 140.286 6.2 140.286 6.69V6.825H143.826ZM151.34 12C151.25 12 151.175 11.97 151.115 11.91C151.055 11.85 151.025 11.775 151.025 11.685V1.92C151.025 1.74 151.085 1.59 151.205 1.47C151.335 1.34 151.49 1.275 151.67 1.275H154.34C154.97 1.275 155.55 1.43 156.08 1.74C156.62 2.05 157.045 2.47 157.355 3C157.675 3.53 157.835 4.105 157.835 4.725C157.835 5.355 157.675 5.935 157.355 6.465C157.045 6.995 156.62 7.415 156.08 7.725C155.55 8.035 154.97 8.19 154.34 8.19H152.855V11.685C152.855 11.775 152.825 11.85 152.765 11.91C152.705 11.97 152.63 12 152.54 12H151.34ZM154.265 6.465C154.745 6.465 155.155 6.295 155.495 5.955C155.835 5.615 156.005 5.205 156.005 4.725C156.005 4.255 155.835 3.85 155.495 3.51C155.155 3.17 154.745 3 154.265 3H152.855V6.465H154.265ZM161.592 12.195C160.752 12.195 160.067 11.96 159.537 11.49C159.017 11.01 158.757 10.39 158.757 9.63C158.757 8.94 158.997 8.37 159.477 7.92C159.957 7.46 160.632 7.16 161.502 7.02C161.722 7 161.932 6.97 162.132 6.93C162.832 6.85 163.257 6.79 163.407 6.75C163.777 6.69 163.962 6.48 163.962 6.12C163.962 5.75 163.807 5.455 163.497 5.235C163.197 5.005 162.817 4.89 162.357 4.89C161.547 4.89 160.957 5.185 160.587 5.775C160.507 5.905 160.412 5.97 160.302 5.97C160.222 5.97 160.157 5.95 160.107 5.91L159.267 5.34C159.177 5.28 159.132 5.195 159.132 5.085C159.132 5.055 159.142 5.01 159.162 4.95C159.452 4.4 159.882 3.975 160.452 3.675C161.022 3.365 161.667 3.21 162.387 3.21C163.047 3.21 163.627 3.335 164.127 3.585C164.627 3.835 165.012 4.19 165.282 4.65C165.562 5.11 165.702 5.64 165.702 6.24V11.685C165.702 11.775 165.672 11.85 165.612 11.91C165.552 11.97 165.477 12 165.387 12H164.367C164.277 12 164.202 11.975 164.142 11.925C164.082 11.865 164.052 11.785 164.052 11.685V11.1C163.362 11.83 162.542 12.195 161.592 12.195ZM161.727 10.59C162.117 10.59 162.487 10.49 162.837 10.29C163.187 10.09 163.467 9.83 163.677 9.51C163.897 9.18 164.007 8.835 164.007 8.475V8.175L162.882 8.34C162.272 8.41 161.877 8.465 161.697 8.505C160.877 8.655 160.467 9.01 160.467 9.57C160.467 9.88 160.582 10.13 160.812 10.32C161.042 10.5 161.347 10.59 161.727 10.59ZM168.12 14.895C168.03 14.895 167.955 14.865 167.895 14.805C167.835 14.745 167.805 14.67 167.805 14.58V3.72C167.805 3.63 167.835 3.555 167.895 3.495C167.955 3.435 168.03 3.405 168.12 3.405H169.095C169.185 3.405 169.26 3.435 169.32 3.495C169.38 3.555 169.41 3.63 169.41 3.72V4.395C169.67 4.005 169.99 3.71 170.37 3.51C170.76 3.31 171.175 3.21 171.615 3.21C172.205 3.21 172.755 3.37 173.265 3.69C173.785 4 174.195 4.42 174.495 4.95C174.805 5.48 174.96 6.05 174.96 6.66V8.745C174.96 9.355 174.81 9.925 174.51 10.455C174.21 10.985 173.805 11.41 173.295 11.73C172.785 12.04 172.225 12.195 171.615 12.195C171.245 12.195 170.885 12.12 170.535 11.97C170.195 11.81 169.885 11.585 169.605 11.295V14.58C169.605 14.67 169.575 14.745 169.515 14.805C169.455 14.865 169.38 14.895 169.29 14.895H168.12ZM171.39 10.47C171.88 10.47 172.295 10.3 172.635 9.96C172.985 9.61 173.16 9.19 173.16 8.7V6.705C173.16 6.215 172.985 5.8 172.635 5.46C172.295 5.11 171.88 4.935 171.39 4.935C170.9 4.935 170.48 5.11 170.13 5.46C169.78 5.8 169.605 6.215 169.605 6.705V8.7C169.605 9.19 169.78 9.61 170.13 9.96C170.48 10.3 170.9 10.47 171.39 10.47ZM178.073 2.4C177.983 2.4 177.908 2.37 177.848 2.31C177.788 2.25 177.758 2.175 177.758 2.085V0.449999C177.758 0.359999 177.788 0.284999 177.848 0.225C177.908 0.165 177.983 0.135 178.073 0.135H179.093C179.183 0.135 179.258 0.165 179.318 0.225C179.378 0.284999 179.408 0.359999 179.408 0.449999V2.085C179.408 2.175 179.378 2.25 179.318 2.31C179.258 2.37 179.183 2.4 179.093 2.4H178.073ZM178.433 12C178.223 12 178.043 11.93 177.893 11.79C177.753 11.64 177.683 11.46 177.683 11.25V5.115H176.468C176.378 5.115 176.303 5.085 176.243 5.025C176.183 4.965 176.153 4.89 176.153 4.8V3.72C176.153 3.63 176.183 3.555 176.243 3.495C176.303 3.435 176.378 3.405 176.468 3.405H178.733C178.943 3.405 179.118 3.48 179.258 3.63C179.408 3.77 179.483 3.945 179.483 4.155V10.29H180.698C180.788 10.29 180.863 10.32 180.923 10.38C180.983 10.44 181.013 10.515 181.013 10.605V11.685C181.013 11.775 180.983 11.85 180.923 11.91C180.863 11.97 180.788 12 180.698 12H178.433ZM183.738 12C183.558 12 183.403 11.94 183.273 11.82C183.153 11.69 183.093 11.535 183.093 11.355V2.25H181.728C181.638 2.25 181.563 2.22 181.503 2.16C181.443 2.1 181.413 2.025 181.413 1.935V0.824999C181.413 0.735 181.443 0.66 181.503 0.599999C181.563 0.539999 181.638 0.51 181.728 0.51H184.248C184.428 0.51 184.578 0.575 184.698 0.705C184.828 0.824999 184.893 0.974999 184.893 1.155V10.26H186.258C186.348 10.26 186.423 10.29 186.483 10.35C186.543 10.41 186.573 10.485 186.573 10.575V11.685C186.573 11.775 186.543 11.85 186.483 11.91C186.423 11.97 186.348 12 186.258 12H183.738ZM189.287 12C189.107 12 188.952 11.94 188.822 11.82C188.702 11.69 188.642 11.535 188.642 11.355V2.25H187.277C187.187 2.25 187.112 2.22 187.052 2.16C186.992 2.1 186.962 2.025 186.962 1.935V0.824999C186.962 0.735 186.992 0.66 187.052 0.599999C187.112 0.539999 187.187 0.51 187.277 0.51H189.797C189.977 0.51 190.127 0.575 190.247 0.705C190.377 0.824999 190.442 0.974999 190.442 1.155V10.26H191.807C191.897 10.26 191.972 10.29 192.032 10.35C192.092 10.41 192.122 10.485 192.122 10.575V11.685C192.122 11.775 192.092 11.85 192.032 11.91C191.972 11.97 191.897 12 191.807 12H189.287ZM196.725 12.195C196.075 12.195 195.475 12.04 194.925 11.73C194.385 11.41 193.955 10.98 193.635 10.44C193.315 9.9 193.155 9.315 193.155 8.685V6.72C193.155 6.09 193.315 5.505 193.635 4.965C193.955 4.425 194.385 4 194.925 3.69C195.475 3.37 196.075 3.21 196.725 3.21C197.375 3.21 197.97 3.37 198.51 3.69C199.06 4 199.495 4.425 199.815 4.965C200.135 5.505 200.295 6.09 200.295 6.72V8.685C200.295 9.315 200.135 9.9 199.815 10.44C199.495 10.98 199.06 11.41 198.51 11.73C197.97 12.04 197.375 12.195 196.725 12.195ZM196.725 10.455C197.215 10.455 197.63 10.285 197.97 9.945C198.32 9.595 198.495 9.175 198.495 8.685V6.72C198.495 6.23 198.32 5.815 197.97 5.475C197.63 5.125 197.215 4.95 196.725 4.95C196.235 4.95 195.815 5.125 195.465 5.475C195.125 5.815 194.955 6.23 194.955 6.72V8.685C194.955 9.175 195.125 9.595 195.465 9.945C195.815 10.285 196.235 10.455 196.725 10.455ZM202.512 12C202.422 12 202.347 11.97 202.287 11.91C202.227 11.85 202.197 11.775 202.197 11.685V3.72C202.197 3.63 202.227 3.555 202.287 3.495C202.347 3.435 202.422 3.405 202.512 3.405H203.682C203.772 3.405 203.847 3.435 203.907 3.495C203.967 3.555 203.997 3.63 203.997 3.72V4.425C204.277 4.045 204.607 3.75 204.987 3.54C205.377 3.32 205.802 3.21 206.262 3.21C206.832 3.21 207.342 3.345 207.792 3.615C208.252 3.885 208.612 4.26 208.872 4.74C209.132 5.22 209.262 5.76 209.262 6.36V11.685C209.262 11.775 209.232 11.85 209.172 11.91C209.112 11.97 209.037 12 208.947 12H207.777C207.687 12 207.612 11.97 207.552 11.91C207.492 11.85 207.462 11.775 207.462 11.685V6.585C207.462 6.055 207.327 5.65 207.057 5.37C206.787 5.08 206.407 4.935 205.917 4.935C205.327 4.935 204.857 5.13 204.507 5.52C204.167 5.9 203.997 6.425 203.997 7.095V11.685C203.997 11.775 203.967 11.85 203.907 11.91C203.847 11.97 203.772 12 203.682 12H202.512ZM218.16 12C217.51 12 216.91 11.84 216.36 11.52C215.82 11.2 215.39 10.765 215.07 10.215C214.75 9.665 214.59 9.065 214.59 8.415V6.795C214.59 6.145 214.75 5.545 215.07 4.995C215.39 4.445 215.82 4.01 216.36 3.69C216.91 3.37 217.51 3.21 218.16 3.21C218.81 3.21 219.405 3.37 219.945 3.69C220.495 4.01 220.93 4.445 221.25 4.995C221.57 5.545 221.73 6.145 221.73 6.795V7.8C221.73 7.98 221.665 8.135 221.535 8.265C221.415 8.385 221.265 8.445 221.085 8.445H216.39V8.52C216.39 9.01 216.56 9.43 216.9 9.78C217.25 10.12 217.67 10.29 218.16 10.29H220.545C220.635 10.29 220.71 10.32 220.77 10.38C220.83 10.44 220.86 10.515 220.86 10.605V11.685C220.86 11.775 220.83 11.85 220.77 11.91C220.71 11.97 220.635 12 220.545 12H218.16ZM219.93 6.825V6.69C219.93 6.2 219.755 5.785 219.405 5.445C219.065 5.095 218.65 4.92 218.16 4.92C217.67 4.92 217.25 5.095 216.9 5.445C216.56 5.785 216.39 6.2 216.39 6.69V6.825H219.93ZM226.786 12C226.006 12 225.371 11.76 224.881 11.28C224.401 10.8 224.161 10.17 224.161 9.39V5.085H223.126C223.036 5.085 222.961 5.055 222.901 4.995C222.841 4.935 222.811 4.86 222.811 4.77V3.72C222.811 3.63 222.841 3.555 222.901 3.495C222.961 3.435 223.036 3.405 223.126 3.405H224.161V1.785C224.161 1.695 224.191 1.62 224.251 1.56C224.311 1.5 224.386 1.47 224.476 1.47H225.646C225.736 1.47 225.811 1.5 225.871 1.56C225.931 1.62 225.961 1.695 225.961 1.785V3.405H228.496C228.586 3.405 228.661 3.435 228.721 3.495C228.781 3.555 228.811 3.63 228.811 3.72V4.785C228.811 4.875 228.781 4.95 228.721 5.01C228.661 5.07 228.586 5.1 228.496 5.1H225.961V9.315C225.961 9.615 226.046 9.855 226.216 10.035C226.396 10.215 226.631 10.305 226.921 10.305L228.496 10.32C228.586 10.32 228.661 10.35 228.721 10.41C228.781 10.47 228.811 10.545 228.811 10.635V11.685C228.811 11.775 228.781 11.85 228.721 11.91C228.661 11.97 228.586 12 228.496 12H226.786ZM236.916 12.18C236.376 12.18 235.841 12.095 235.311 11.925C234.791 11.745 234.306 11.5 233.856 11.19C233.806 11.16 233.771 11.11 233.751 11.04C233.731 10.96 233.736 10.89 233.766 10.83L234.291 9.885C234.351 9.765 234.446 9.705 234.576 9.705C234.656 9.705 234.731 9.725 234.801 9.765C235.551 10.235 236.251 10.47 236.901 10.47C237.431 10.47 237.846 10.345 238.146 10.095C238.456 9.835 238.611 9.5 238.611 9.09C238.611 8.82 238.536 8.595 238.386 8.415C238.236 8.225 238.036 8.065 237.786 7.935C237.536 7.805 237.171 7.645 236.691 7.455L236.256 7.275C235.576 6.985 235.001 6.615 234.531 6.165C234.071 5.715 233.841 5.055 233.841 4.185C233.841 3.575 233.976 3.035 234.246 2.565C234.526 2.095 234.911 1.73 235.401 1.47C235.891 1.21 236.456 1.08 237.096 1.08C237.626 1.08 238.151 1.17 238.671 1.35C239.201 1.52 239.676 1.76 240.096 2.07C240.146 2.1 240.181 2.155 240.201 2.235C240.221 2.305 240.216 2.37 240.186 2.43L239.691 3.375C239.631 3.495 239.536 3.555 239.406 3.555C239.326 3.555 239.251 3.535 239.181 3.495C238.791 3.245 238.416 3.065 238.056 2.955C237.706 2.845 237.391 2.79 237.111 2.79C236.661 2.79 236.306 2.915 236.046 3.165C235.786 3.405 235.656 3.715 235.656 4.095C235.656 4.485 235.796 4.81 236.076 5.07C236.366 5.32 236.826 5.575 237.456 5.835C237.546 5.865 237.886 6.005 238.476 6.255C239.076 6.495 239.551 6.85 239.901 7.32C240.251 7.79 240.426 8.345 240.426 8.985C240.426 9.605 240.276 10.16 239.976 10.65C239.686 11.13 239.276 11.505 238.746 11.775C238.216 12.045 237.606 12.18 236.916 12.18ZM245.22 12.195C244.65 12.195 244.135 12.06 243.675 11.79C243.225 11.52 242.87 11.145 242.61 10.665C242.35 10.185 242.22 9.645 242.22 9.045V3.72C242.22 3.63 242.25 3.555 242.31 3.495C242.37 3.435 242.445 3.405 242.535 3.405H243.705C243.795 3.405 243.87 3.435 243.93 3.495C243.99 3.555 244.02 3.63 244.02 3.72V8.82C244.02 9.35 244.155 9.76 244.425 10.05C244.695 10.33 245.075 10.47 245.565 10.47C246.155 10.47 246.62 10.28 246.96 9.9C247.31 9.51 247.485 8.98 247.485 8.31V3.72C247.485 3.63 247.515 3.555 247.575 3.495C247.635 3.435 247.71 3.405 247.8 3.405H248.97C249.06 3.405 249.135 3.435 249.195 3.495C249.255 3.555 249.285 3.63 249.285 3.72V11.685C249.285 11.775 249.255 11.85 249.195 11.91C249.135 11.97 249.06 12 248.97 12H247.8C247.71 12 247.635 11.97 247.575 11.91C247.515 11.85 247.485 11.775 247.485 11.685V10.98C247.205 11.36 246.87 11.66 246.48 11.88C246.1 12.09 245.68 12.195 245.22 12.195ZM252.873 2.4C252.783 2.4 252.708 2.37 252.648 2.31C252.588 2.25 252.558 2.175 252.558 2.085V0.449999C252.558 0.359999 252.588 0.284999 252.648 0.225C252.708 0.165 252.783 0.135 252.873 0.135H253.893C253.983 0.135 254.058 0.165 254.118 0.225C254.178 0.284999 254.208 0.359999 254.208 0.449999V2.085C254.208 2.175 254.178 2.25 254.118 2.31C254.058 2.37 253.983 2.4 253.893 2.4H252.873ZM253.233 12C253.023 12 252.843 11.93 252.693 11.79C252.553 11.64 252.483 11.46 252.483 11.25V5.115H251.268C251.178 5.115 251.103 5.085 251.043 5.025C250.983 4.965 250.953 4.89 250.953 4.8V3.72C250.953 3.63 250.983 3.555 251.043 3.495C251.103 3.435 251.178 3.405 251.268 3.405H253.533C253.743 3.405 253.918 3.48 254.058 3.63C254.208 3.77 254.283 3.945 254.283 4.155V10.29H255.498C255.588 10.29 255.663 10.32 255.723 10.38C255.783 10.44 255.813 10.515 255.813 10.605V11.685C255.813 11.775 255.783 11.85 255.723 11.91C255.663 11.97 255.588 12 255.498 12H253.233ZM257.275 12C257.185 12 257.11 11.97 257.05 11.91C256.99 11.85 256.96 11.775 256.96 11.685V10.575C256.96 10.485 256.99 10.41 257.05 10.35C257.11 10.29 257.185 10.26 257.275 10.26H258.415V5.1H257.125C257.035 5.1 256.96 5.07 256.9 5.01C256.84 4.95 256.81 4.875 256.81 4.785V3.72C256.81 3.63 256.84 3.555 256.9 3.495C256.96 3.435 257.035 3.405 257.125 3.405H259.45C259.63 3.405 259.78 3.47 259.9 3.6C260.03 3.72 260.095 3.87 260.095 4.05V4.59L260.905 3.945C261.205 3.705 261.465 3.54 261.685 3.45C261.905 3.35 262.165 3.3 262.465 3.3H262.93C263.02 3.3 263.095 3.33 263.155 3.39C263.215 3.45 263.245 3.525 263.245 3.615V4.77C263.245 4.86 263.215 4.935 263.155 4.995C263.095 5.055 263.02 5.085 262.93 5.085H262.54C262.28 5.085 262.055 5.13 261.865 5.22C261.675 5.31 261.385 5.51 260.995 5.82L260.17 6.48V10.26H261.655C261.745 10.26 261.82 10.29 261.88 10.35C261.94 10.41 261.97 10.485 261.97 10.575V11.685C261.97 11.775 261.94 11.85 261.88 11.91C261.82 11.97 261.745 12 261.655 12H257.275ZM264.625 12C264.535 12 264.46 11.97 264.4 11.91C264.34 11.85 264.31 11.775 264.31 11.685V10.575C264.31 10.485 264.34 10.41 264.4 10.35C264.46 10.29 264.535 10.26 264.625 10.26H265.765V5.1H264.475C264.385 5.1 264.31 5.07 264.25 5.01C264.19 4.95 264.16 4.875 264.16 4.785V3.72C264.16 3.63 264.19 3.555 264.25 3.495C264.31 3.435 264.385 3.405 264.475 3.405H266.8C266.98 3.405 267.13 3.47 267.25 3.6C267.38 3.72 267.445 3.87 267.445 4.05V4.59L268.255 3.945C268.555 3.705 268.815 3.54 269.035 3.45C269.255 3.35 269.515 3.3 269.815 3.3H270.28C270.37 3.3 270.445 3.33 270.505 3.39C270.565 3.45 270.595 3.525 270.595 3.615V4.77C270.595 4.86 270.565 4.935 270.505 4.995C270.445 5.055 270.37 5.085 270.28 5.085H269.89C269.63 5.085 269.405 5.13 269.215 5.22C269.025 5.31 268.735 5.51 268.345 5.82L267.52 6.48V10.26H269.005C269.095 10.26 269.17 10.29 269.23 10.35C269.29 10.41 269.32 10.485 269.32 10.575V11.685C269.32 11.775 269.29 11.85 269.23 11.91C269.17 11.97 269.095 12 269.005 12H264.625Z" fill="white" fill-opacity="0.5"/>
</svg>
