<svg width="111" height="28" viewBox="0 0 111 28" fill="none" xmlns="http://www.w3.org/2000/svg">
<path fill-rule="evenodd" clip-rule="evenodd" d="M5.29146 6.19399C5.42504 6.77297 5.60998 7.37361 5.84496 7.98407C5.24482 8.04363 4.67586 8.13624 4.14681 8.26098C3.17254 8.49069 2.26861 8.84458 1.55078 9.3575C0.826479 9.87504 0.217496 10.6139 0.0463525 11.5923C-0.12479 12.5708 0.196792 13.475 0.701822 14.2111C1.20234 14.9406 1.93169 15.5848 2.76927 16.1366C2.92573 16.2396 3.08792 16.3408 3.25552 16.4398C4.8915 17.4141 7.04992 18.1874 9.42851 18.6102C12.111 19.087 14.663 18.8318 16.6025 18.2668C16.7086 18.2359 16.8134 18.204 16.9167 18.1709C16.6319 19.3825 16.4381 20.538 16.3469 21.5619C16.2579 22.5618 16.2596 23.5105 16.4081 24.2884C16.5204 24.8767 16.8009 25.8017 17.6074 26.2683C17.715 26.3337 17.8323 26.3909 17.9601 26.4378C18.9324 26.7946 19.8247 26.337 20.379 25.9262C20.9817 25.4795 21.5623 24.82 22.1001 24.0667C23.1867 22.5445 24.2836 20.3752 25.1708 17.9179C26.0581 15.4606 26.601 13.0881 26.7392 11.2179C26.8076 10.2923 26.7833 9.41089 26.6064 8.67825C26.4636 8.08664 26.1442 7.2986 25.4104 6.87362C25.2981 6.80537 25.1758 6.74574 25.0425 6.69685C24.1719 6.37743 23.3394 6.66972 22.7387 7.04304C22.1254 7.42422 21.547 8.00785 21.0171 8.6892C20.6455 9.167 20.2744 9.72318 19.9111 10.349C19.317 8.82232 18.3769 7.10394 16.988 5.43535C15.4924 3.63856 13.8196 2.18276 12.2194 1.23711C11.9891 1.1 11.7603 0.973406 11.5337 0.857839C10.6409 0.402493 9.72282 0.0878584 8.84588 0.0156337C7.96103 -0.0572419 7.02341 0.114137 6.26842 0.752773L6.29457 0.784194C5.55052 1.41971 5.20769 2.33772 5.08784 3.23136C4.96593 4.14037 5.05264 5.15889 5.29146 6.19399ZM10.3742 3.26448C10.5377 3.34791 10.7048 3.43991 10.8748 3.54026C12.1506 4.30067 13.586 5.52831 14.9201 7.13108C15.7636 8.14452 16.4083 9.17238 16.8883 10.1356C15.3213 9.29109 13.3512 8.62261 11.2013 8.24045C10.3564 8.09028 9.52267 7.99123 8.71502 7.94168C8.32292 7.12039 8.04229 6.32015 7.87351 5.5886C7.68458 4.76976 7.64783 4.08951 7.7149 3.5894C7.78344 3.07833 7.93924 2.88151 8.0096 2.822C8.07665 2.76528 8.24889 2.66676 8.66719 2.70121C9.0934 2.73631 9.67175 2.90624 10.3742 3.26448ZM9.85167 15.9563C7.73063 15.5793 5.90208 14.9051 4.60021 14.1367C4.48113 14.0657 4.36653 13.9939 4.25662 13.9215C3.59766 13.4874 3.16251 13.0675 2.91925 12.7129C2.6805 12.365 2.67902 12.1653 2.69422 12.0784C2.70942 11.9915 2.77854 11.8045 3.12095 11.5598C3.46982 11.3105 4.02121 11.0659 4.78771 10.8852C5.46577 10.7253 6.26154 10.6273 7.14124 10.6041C7.57722 11.3202 8.07861 12.0269 8.6433 12.7053C9.98146 14.313 11.5647 15.4393 13.1353 16.1372C12.1092 16.2033 10.9952 16.1596 9.85167 15.9563ZM10.7781 10.8943C12.8992 11.2713 14.7279 11.9456 16.0297 12.714C16.1488 12.785 16.2633 12.8567 16.3732 12.9291C17.0321 13.3632 17.4673 13.7832 17.7105 14.1377C17.7429 14.1849 17.7709 14.2293 17.7951 14.2711C17.682 14.2962 17.5538 14.3168 17.4094 14.3307C16.8641 14.3829 16.1752 14.3278 15.4036 14.1197C13.8631 13.7041 12.1066 12.7085 10.6741 10.9875C10.6382 10.9445 10.6027 10.9013 10.5675 10.858C10.6375 10.8697 10.7077 10.8818 10.7781 10.8943ZM23.1405 10.3601C23.4906 9.91001 23.7918 9.61459 24.0245 9.4386C24.0864 9.7921 24.1091 10.311 24.0584 10.9973C23.9428 12.5605 23.471 14.6874 22.6426 16.9819C21.8142 19.2764 20.8194 21.2114 19.9112 22.4837C19.5683 22.9641 19.2627 23.3145 19.0103 23.5499C18.9622 23.1276 18.9599 22.5475 19.0244 21.8228C19.1732 20.1519 19.6523 17.975 20.4152 15.7888C20.455 15.7031 20.4906 15.613 20.5202 15.5184C20.587 15.3747 20.6334 15.2306 20.6664 15.0963C21.4581 12.996 22.3442 11.3839 23.1405 10.3601Z" fill="#555555" fill-opacity="0.65"/>
<path d="M76.8555 22.5368C77.6593 22.5368 78.5928 22.3538 79.267 22.0663L78.5928 19.8183C78.3076 19.9228 78.0224 19.9751 77.789 19.9751C77.0111 19.9751 76.5962 19.4785 76.5962 18.5897V3.01043H73.329V19.0079C73.329 21.2037 74.6515 22.5368 76.8555 22.5368Z" fill="#555555" fill-opacity="0.65"/>
<path d="M71.2427 22.3277H67.9495V9.62378H71.2427V22.3277Z" fill="#555555" fill-opacity="0.65"/>
<path d="M71.6575 5.23231C71.6575 6.48701 70.8537 7.29734 69.6091 7.29734C68.3903 7.29734 67.5865 6.48701 67.5865 5.23231C67.5865 3.9776 68.3903 3.16727 69.6091 3.16727C70.8537 3.16727 71.6575 3.9776 71.6575 5.23231Z" fill="#555555" fill-opacity="0.65"/>
<path fill-rule="evenodd" clip-rule="evenodd" d="M31.9156 22.3277H28.5706V4.18672H34.742C38.9427 4.18672 41.5875 6.46087 41.5875 10.1204C41.5875 13.963 38.6056 16.5247 34.1715 16.5247H31.9156V22.3277ZM31.9156 13.5709H34.7679C36.8942 13.5709 38.1129 12.473 38.1129 10.5387C38.1129 8.49977 36.6349 7.14051 34.4308 7.14051H31.9156V13.5709Z" fill="#555555" fill-opacity="0.65"/>
<path fill-rule="evenodd" clip-rule="evenodd" d="M52.696 22.3277H50.3363L49.8753 21.0565C48.9029 22.049 47.5429 22.5891 45.9282 22.5891C43.2833 22.5891 41.5719 21.0991 41.5719 18.825C41.5719 16.1166 44.0033 14.8788 49.4547 14.8032V14.4335C49.4547 12.9174 48.3656 12.1332 46.3431 12.1332C45.1762 12.1332 43.9316 12.3946 42.6091 12.9174L41.8312 10.591C43.3093 9.8329 45.2281 9.36238 47.0432 9.36238C50.7512 9.36238 52.696 11.2706 52.696 14.6949V22.3277ZM49.4547 16.6594C46.2205 16.7085 44.891 17.2154 44.891 18.3806C44.891 19.3216 45.7467 19.9751 47.0173 19.9751C47.9797 19.9751 48.8395 19.6337 49.4547 19.042V16.6594Z" fill="#555555" fill-opacity="0.65"/>
<path fill-rule="evenodd" clip-rule="evenodd" d="M60.8186 22.5891C64.2413 22.5891 66.6528 19.7921 66.6528 15.7928C66.6528 12.0025 64.3969 9.36238 61.1556 9.36238C59.6432 9.36238 58.2988 9.97821 57.3334 11.0444L56.7475 9.62378H54.5175V28H57.7069V21.4694C58.5229 22.1952 59.5917 22.5891 60.8186 22.5891ZM57.7069 18.3141V13.2869C58.3578 12.5851 59.2746 12.1855 60.2481 12.1855C62.1151 12.1855 63.3078 13.6754 63.3078 16.028C63.3078 18.3283 62.2188 19.7921 60.4037 19.7921C59.2685 19.7921 58.2867 19.2251 57.7069 18.3141Z" fill="#555555" fill-opacity="0.65"/>
<path d="M85.4821 22.0663C84.8079 22.3538 83.8745 22.5368 83.0706 22.5368C80.8666 22.5368 79.5441 21.2037 79.5441 19.0079V3.01043H82.8113V18.5897C82.8113 19.4785 83.2262 19.9751 84.0041 19.9751C84.2375 19.9751 84.5227 19.9228 84.8079 19.8183L85.4821 22.0663Z" fill="#555555" fill-opacity="0.65"/>
<path fill-rule="evenodd" clip-rule="evenodd" d="M91.2305 22.5891C95.1978 22.5891 97.8945 19.8705 97.8945 15.7928C97.8945 11.8979 95.4312 9.36238 91.6194 9.36238C87.6262 9.36238 84.9814 12.0809 84.9814 16.1848C84.9814 20.0535 87.4188 22.5891 91.2305 22.5891ZM91.5157 19.7921C89.571 19.7921 88.3263 18.276 88.3263 15.8973C88.3263 13.6232 89.4673 12.1855 91.3342 12.1855C93.279 12.1855 94.5236 13.7277 94.5236 16.1064C94.5236 18.3806 93.3827 19.7921 91.5157 19.7921Z" fill="#555555" fill-opacity="0.65"/>
<path d="M110.783 22.3277H107.464V14.9563C107.464 13.2311 106.634 12.3162 105.026 12.3162C104.069 12.3162 103.199 12.6504 102.459 13.2612V22.3277H99.1659V9.62378H101.526L102.104 11.0161C103.214 9.98445 104.645 9.41466 106.167 9.41466C109.019 9.41466 110.783 11.349 110.783 14.5119V22.3277Z" fill="#555555" fill-opacity="0.65"/>
</svg>
