<svg width="127" height="32" viewBox="0 0 127 32" fill="none" xmlns="http://www.w3.org/2000/svg">
<path fill-rule="evenodd" clip-rule="evenodd" d="M6.04738 7.07885C6.20004 7.74053 6.41141 8.42698 6.67996 9.12465C5.99408 9.19272 5.34384 9.29856 4.73921 9.44112C3.62576 9.70364 2.5927 10.1081 1.77232 10.6943C0.944548 11.2858 0.248566 12.1302 0.0529743 13.2484C-0.142618 14.3666 0.224906 15.4 0.802082 16.2413C1.3741 17.0749 2.20764 17.8112 3.16488 18.4418C3.3437 18.5596 3.52906 18.6752 3.7206 18.7883C5.59029 19.9019 8.05706 20.7856 10.7754 21.2688C13.8412 21.8137 16.7577 21.522 18.9743 20.8764C19.0955 20.8411 19.2153 20.8045 19.3334 20.7668C19.0078 22.1514 18.7864 23.4719 18.6822 24.6421C18.5804 25.7849 18.5824 26.8691 18.7521 27.7581C18.8805 28.4306 19.2011 29.4877 20.1228 30.0209C20.2458 30.0957 20.3798 30.1611 20.5259 30.2147C21.637 30.6223 22.6568 30.0994 23.2903 29.6299C23.979 29.1195 24.6427 28.3658 25.2572 27.5048C26.4991 25.7652 27.7527 23.286 28.7667 20.4776C29.7806 17.6693 30.4011 14.9578 30.5591 12.8204C30.6372 11.7627 30.6094 10.7553 30.4073 9.918C30.2441 9.24188 29.8791 8.34125 29.0405 7.85556C28.9121 7.77757 28.7723 7.70941 28.62 7.65354C27.6251 7.28849 26.6736 7.62254 25.9871 8.04919C25.2862 8.48482 24.6252 9.15183 24.0196 9.93051C23.5949 10.4766 23.1708 11.1122 22.7555 11.8274C22.0766 10.0826 21.0022 8.11879 19.4149 6.21183C17.7056 4.15836 15.7938 2.49458 13.965 1.41384C13.7019 1.25714 13.4404 1.11246 13.1814 0.980388C12.1611 0.459992 11.1118 0.10041 10.1096 0.0178671C9.09832 -0.0654194 8.02675 0.130443 7.1639 0.860312L7.19379 0.896222C6.34346 1.62252 5.95164 2.67168 5.81467 3.69298C5.67534 4.73185 5.77445 5.89587 6.04738 7.07885ZM11.8562 3.73083C12.0431 3.82618 12.2341 3.93132 12.4284 4.04601C13.8864 4.91505 15.5269 6.31807 17.0515 8.14981C18.0156 9.30802 18.7524 10.4827 19.3009 11.5835C17.5101 10.6184 15.2586 9.85442 12.8015 9.41766C11.8359 9.24603 10.8831 9.13283 9.96003 9.07621C9.51191 8.13759 9.19119 7.22303 8.99829 6.38697C8.78238 5.45115 8.74038 4.67372 8.81703 4.10217C8.89537 3.51809 9.07342 3.29316 9.15383 3.22514C9.23046 3.16033 9.4273 3.04772 9.90536 3.0871C10.3925 3.12721 11.0534 3.32141 11.8562 3.73083ZM11.2591 18.2358C8.83501 17.8049 6.74523 17.0344 5.25739 16.1562C5.12129 16.0751 4.99032 15.9931 4.86471 15.9103C4.11161 15.4142 3.61429 14.9343 3.33628 14.5291C3.06343 14.1314 3.06174 13.9032 3.07911 13.8039C3.09648 13.7046 3.17547 13.4908 3.56679 13.2112C3.96551 12.9263 4.59567 12.6468 5.47167 12.4402C6.2466 12.2575 7.15604 12.1455 8.16141 12.119C8.65968 12.9374 9.23269 13.745 9.87806 14.5204C11.4074 16.3577 13.2168 17.6449 15.0118 18.4425C13.8391 18.518 12.5659 18.4681 11.2591 18.2358ZM12.3179 12.4506C14.742 12.8815 16.8318 13.6521 18.3197 14.5303C18.4557 14.6114 18.5866 14.6934 18.7122 14.7761C19.4653 15.2722 19.9626 15.7522 20.2406 16.1574C20.2776 16.2113 20.3096 16.2621 20.3373 16.3098C20.208 16.3385 20.0615 16.3621 19.8964 16.3779C19.2733 16.4376 18.4859 16.3747 17.6042 16.1368C15.8435 15.6618 13.8361 14.524 12.1989 12.5572C12.158 12.508 12.1174 12.4586 12.0771 12.4092C12.1571 12.4225 12.2374 12.4363 12.3179 12.4506ZM26.4463 11.8402C26.8464 11.3257 27.1906 10.9881 27.4565 10.787C27.5273 11.191 27.5532 11.784 27.4953 12.5683C27.3633 14.3548 26.824 16.7856 25.8772 19.4078C24.9305 22.0301 23.7936 24.2416 22.7556 25.6957C22.3637 26.2447 22.0145 26.6451 21.7261 26.9141C21.6711 26.4316 21.6685 25.7686 21.7422 24.9404C21.9122 23.0308 22.4597 20.5428 23.3316 18.0443C23.3772 17.9464 23.4178 17.8434 23.4516 17.7353C23.528 17.5711 23.5811 17.4063 23.6188 17.2529C24.5235 14.8526 25.5363 13.0102 26.4463 11.8402Z" fill="white"/>
<path d="M87.8349 25.7563C88.7535 25.7563 89.8204 25.5472 90.5909 25.2186L89.8204 22.6495C89.4944 22.7689 89.1684 22.8287 88.9017 22.8287C88.0127 22.8287 87.5385 22.2611 87.5385 21.2454V3.44049H83.8046V21.7234C83.8046 24.2328 85.316 25.7563 87.8349 25.7563Z" fill="white"/>
<path d="M81.4202 25.5174H77.6566V10.9986H81.4202V25.5174Z" fill="white"/>
<path d="M81.8943 5.97978C81.8943 7.41373 80.9757 8.33982 79.5532 8.33982C78.1604 8.33982 77.2417 7.41373 77.2417 5.97978C77.2417 4.54583 78.1604 3.61974 79.5532 3.61974C80.9757 3.61974 81.8943 4.54583 81.8943 5.97978Z" fill="white"/>
<path fill-rule="evenodd" clip-rule="evenodd" d="M36.475 25.5174H32.6522V4.78482H39.7051C44.5059 4.78482 47.5286 7.38385 47.5286 11.5662C47.5286 15.9577 44.1207 18.8853 39.0532 18.8853H36.475V25.5174ZM36.475 15.5096H39.7348C42.1648 15.5096 43.5576 14.2549 43.5576 12.0442C43.5576 9.71403 41.8685 8.16058 39.3495 8.16058H36.475V15.5096Z" fill="white"/>
<path fill-rule="evenodd" clip-rule="evenodd" d="M60.224 25.5174H57.5272L57.0004 24.0646C55.889 25.1989 54.3347 25.8161 52.4894 25.8161C49.4667 25.8161 47.5108 24.1133 47.5108 21.5142C47.5108 18.4189 50.2895 17.0044 56.5197 16.9179V16.4954C56.5197 14.7627 55.275 13.8665 52.9635 13.8665C51.63 13.8665 50.2075 14.1652 48.6962 14.7627L47.8071 12.1039C49.4963 11.2376 51.6893 10.6999 53.7637 10.6999C58.0014 10.6999 60.224 12.8807 60.224 16.7942V25.5174ZM56.5197 19.0393C52.8234 19.0955 51.304 19.6747 51.304 21.0064C51.304 22.0818 52.2819 22.8287 53.734 22.8287C54.834 22.8287 55.8166 22.4385 56.5197 21.7623V19.0393Z" fill="white"/>
<path fill-rule="evenodd" clip-rule="evenodd" d="M69.5069 25.8161C73.4187 25.8161 76.1747 22.6196 76.1747 18.0489C76.1747 13.7171 73.5965 10.6999 69.8922 10.6999C68.1637 10.6999 66.6273 11.4037 65.5239 12.6222L64.8543 10.9986H62.3058V32H65.9508V24.5364C66.8833 25.366 68.1048 25.8161 69.5069 25.8161ZM65.9508 20.9303V15.1851C66.6946 14.383 67.7424 13.9263 68.855 13.9263C70.9886 13.9263 72.3518 15.6291 72.3518 18.3177C72.3518 20.9466 71.1072 22.6196 69.0328 22.6196C67.7354 22.6196 66.6133 21.9716 65.9508 20.9303Z" fill="white"/>
<path d="M97.6939 25.2186C96.9234 25.5472 95.8565 25.7563 94.9379 25.7563C92.4189 25.7563 90.9076 24.2328 90.9076 21.7234V3.44049H94.6415V21.2454C94.6415 22.2611 95.1157 22.8287 96.0047 22.8287C96.2714 22.8287 96.5974 22.7689 96.9234 22.6495L97.6939 25.2186Z" fill="white"/>
<path fill-rule="evenodd" clip-rule="evenodd" d="M104.263 25.8161C108.798 25.8161 111.879 22.7092 111.879 18.0489C111.879 13.5976 109.064 10.6999 104.708 10.6999C100.144 10.6999 97.1216 13.8068 97.1216 18.497C97.1216 22.9183 99.9072 25.8161 104.263 25.8161ZM104.589 22.6196C102.367 22.6196 100.944 20.8869 100.944 18.1684C100.944 15.5693 102.248 13.9263 104.382 13.9263C106.605 13.9263 108.027 15.6888 108.027 18.4073C108.027 21.0064 106.723 22.6196 104.589 22.6196Z" fill="white"/>
<path d="M126.609 25.5174H122.815V17.0929C122.815 15.1212 121.867 14.0756 120.03 14.0756C118.936 14.0756 117.942 14.4576 117.096 15.1557V25.5174H113.332V10.9986H116.029L116.69 12.5899C117.959 11.4108 119.594 10.7596 121.334 10.7596C124.594 10.7596 126.609 12.9703 126.609 16.585V25.5174Z" fill="white"/>
</svg>
