<svg width="36" height="36" viewBox="0 0 36 36" fill="none" xmlns="http://www.w3.org/2000/svg">
<rect width="36" height="36" rx="18" fill="#29947A"/>
<mask id="mask0_126_1035" style="mask-type:alpha" maskUnits="userSpaceOnUse" x="6" y="6" width="24" height="24">
<rect x="6" y="6" width="24" height="24" fill="#D9D9D9"/>
</mask>
<g mask="url(#mask0_126_1035)">
<path d="M17.25 27H13C12.45 27 11.9793 26.8043 11.588 26.413C11.196 26.021 11 25.55 11 25V12H10V10H15V9H21V10H26V12H25V16.3C24.7167 16.2167 24.3873 16.1457 24.012 16.087C23.6373 16.029 23.3 16 23 16V12H13V25H16.3C16.4 25.35 16.5333 25.696 16.7 26.038C16.8667 26.3793 17.05 26.7 17.25 27ZM15 23H16C16 21.95 16.1667 21.0873 16.5 20.412L17 19.4V14H15V23ZM19 17.25C19.2833 17.0667 19.6043 16.8833 19.963 16.7C20.321 16.5167 20.6667 16.3833 21 16.3V14H19V17.25ZM23 28C21.6167 28 20.4377 27.5127 19.463 26.538C18.4877 25.5627 18 24.3833 18 23C18 21.6167 18.4877 20.4373 19.463 19.462C20.4377 18.4873 21.6167 18 23 18C24.3833 18 25.5627 18.4873 26.538 19.462C27.5127 20.4373 28 21.6167 28 23C28 24.3833 27.5127 25.5627 26.538 26.538C25.5627 27.5127 24.3833 28 23 28ZM24.65 25.35L25.35 24.65L23.5 22.8V20H22.5V23.2L24.65 25.35Z" fill="white"/>
</g>
</svg>
