<svg width="36" height="36" viewBox="0 0 36 36" fill="none" xmlns="http://www.w3.org/2000/svg">
<rect width="36" height="36" rx="18" fill="#29947A"/>
<mask id="mask0_126_1042" style="mask-type:alpha" maskUnits="userSpaceOnUse" x="6" y="6" width="24" height="24">
<rect x="6" y="6" width="24" height="24" fill="#D9D9D9"/>
</mask>
<g mask="url(#mask0_126_1042)">
<path d="M17.7 24C16.1 23.9167 14.75 23.3 13.65 22.15C12.55 21 12 19.6167 12 18C12 16.3333 12.5833 14.9167 13.75 13.75C14.9167 12.5833 16.3333 12 18 12C19.6167 12 21 12.55 22.15 13.65C23.3 14.75 23.9167 16.1 24 17.7L21.9 17.075C21.6833 16.175 21.2167 15.4377 20.5 14.863C19.7833 14.2877 18.95 14 18 14C16.9 14 15.9583 14.3917 15.175 15.175C14.3917 15.9583 14 16.9 14 18C14 18.95 14.2877 19.7833 14.863 20.5C15.4377 21.2167 16.175 21.6833 17.075 21.9L17.7 24ZM18.9 27.95C18.75 27.9833 18.6 28 18.45 28H18C16.6167 28 15.3167 27.7373 14.1 27.212C12.8833 26.6873 11.825 25.975 10.925 25.075C10.025 24.175 9.31267 23.1167 8.788 21.9C8.26267 20.6833 8 19.3833 8 18C8 16.6167 8.26267 15.3167 8.788 14.1C9.31267 12.8833 10.025 11.825 10.925 10.925C11.825 10.025 12.8833 9.31233 14.1 8.787C15.3167 8.26233 16.6167 8 18 8C19.3833 8 20.6833 8.26233 21.9 8.787C23.1167 9.31233 24.175 10.025 25.075 10.925C25.975 11.825 26.6873 12.8833 27.212 14.1C27.7373 15.3167 28 16.6167 28 18V18.45C28 18.6 27.9833 18.75 27.95 18.9L26 18.3V18C26 15.7667 25.225 13.875 23.675 12.325C22.125 10.775 20.2333 10 18 10C15.7667 10 13.875 10.775 12.325 12.325C10.775 13.875 10 15.7667 10 18C10 20.2333 10.775 22.125 12.325 23.675C13.875 25.225 15.7667 26 18 26H18.3L18.9 27.95ZM26.525 28.5L22.25 24.225L21 28L18 18L28 21L24.225 22.25L28.5 26.525L26.525 28.5Z" fill="white"/>
</g>
</svg>
