<svg width="36" height="36" viewBox="0 0 36 36" fill="none" xmlns="http://www.w3.org/2000/svg">
<rect width="36" height="36" rx="18" fill="#29947A"/>
<mask id="mask0_126_1031" style="mask-type:alpha" maskUnits="userSpaceOnUse" x="6" y="6" width="24" height="24">
<rect x="6" y="6" width="24" height="24" fill="#D9D9D9"/>
</mask>
<g mask="url(#mask0_126_1031)">
<path d="M20 26V24H23C23.2833 24 23.5207 23.904 23.712 23.712C23.904 23.5207 24 23.2833 24 23V21C24 20.3667 24.1833 19.7917 24.55 19.275C24.9167 18.7583 25.4 18.3917 26 18.175V17.825C25.4 17.6083 24.9167 17.2417 24.55 16.725C24.1833 16.2083 24 15.6333 24 15V13C24 12.7167 23.904 12.479 23.712 12.287C23.5207 12.0957 23.2833 12 23 12H20V10H23C23.8333 10 24.5417 10.2917 25.125 10.875C25.7083 11.4583 26 12.1667 26 13V15C26 15.2833 26.096 15.5207 26.288 15.712C26.4793 15.904 26.7167 16 27 16H28V20H27C26.7167 20 26.4793 20.0957 26.288 20.287C26.096 20.479 26 20.7167 26 21V23C26 23.8333 25.7083 24.5417 25.125 25.125C24.5417 25.7083 23.8333 26 23 26H20ZM13 26C12.1667 26 11.4583 25.7083 10.875 25.125C10.2917 24.5417 10 23.8333 10 23V21C10 20.7167 9.90433 20.479 9.713 20.287C9.521 20.0957 9.28333 20 9 20H8V16H9C9.28333 16 9.521 15.904 9.713 15.712C9.90433 15.5207 10 15.2833 10 15V13C10 12.1667 10.2917 11.4583 10.875 10.875C11.4583 10.2917 12.1667 10 13 10H16V12H13C12.7167 12 12.479 12.0957 12.287 12.287C12.0957 12.479 12 12.7167 12 13V15C12 15.6333 11.8167 16.2083 11.45 16.725C11.0833 17.2417 10.6 17.6083 10 17.825V18.175C10.6 18.3917 11.0833 18.7583 11.45 19.275C11.8167 19.7917 12 20.3667 12 21V23C12 23.2833 12.0957 23.5207 12.287 23.712C12.479 23.904 12.7167 24 13 24H16V26H13Z" fill="white"/>
</g>
</svg>
